<svg id="visual" viewBox="0 0 960 540" width="960" height="540" xmlns="http://www.w3.org/2000/svg" xmlns:xlink="http://www.w3.org/1999/xlink" version="1.1"><rect x="0" y="0" width="960" height="540" fill="#001220"></rect><defs><linearGradient id="grad1_0" x1="43.8%" y1="0%" x2="100%" y2="100%"><stop offset="14.444444444444446%" stop-color="#fbae3c" stop-opacity="1"></stop><stop offset="85.55555555555554%" stop-color="#fbae3c" stop-opacity="1"></stop></linearGradient></defs><defs><linearGradient id="grad1_1" x1="43.8%" y1="0%" x2="100%" y2="100%"><stop offset="14.444444444444446%" stop-color="#fbae3c" stop-opacity="1"></stop><stop offset="85.55555555555554%" stop-color="#f48350" stop-opacity="1"></stop></linearGradient></defs><defs><linearGradient id="grad1_2" x1="43.8%" y1="0%" x2="100%" y2="100%"><stop offset="14.444444444444446%" stop-color="#d96162" stop-opacity="1"></stop><stop offset="85.55555555555554%" stop-color="#f48350" stop-opacity="1"></stop></linearGradient></defs><defs><linearGradient id="grad1_3" x1="43.8%" y1="0%" x2="100%" y2="100%"><stop offset="14.444444444444446%" stop-color="#d96162" stop-opacity="1"></stop><stop offset="85.55555555555554%" stop-color="#af4b6d" stop-opacity="1"></stop></linearGradient></defs><defs><linearGradient id="grad1_4" x1="43.8%" y1="0%" x2="100%" y2="100%"><stop offset="14.444444444444446%" stop-color="#7c3e6b" stop-opacity="1"></stop><stop offset="85.55555555555554%" stop-color="#af4b6d" stop-opacity="1"></stop></linearGradient></defs><defs><linearGradient id="grad1_5" x1="43.8%" y1="0%" x2="100%" y2="100%"><stop offset="14.444444444444446%" stop-color="#7c3e6b" stop-opacity="1"></stop><stop offset="85.55555555555554%" stop-color="#49335c" stop-opacity="1"></stop></linearGradient></defs><defs><linearGradient id="grad1_6" x1="43.8%" y1="0%" x2="100%" y2="100%"><stop offset="14.444444444444446%" stop-color="#1d2540" stop-opacity="1"></stop><stop offset="85.55555555555554%" stop-color="#49335c" stop-opacity="1"></stop></linearGradient></defs><defs><linearGradient id="grad1_7" x1="43.8%" y1="0%" x2="100%" y2="100%"><stop offset="14.444444444444446%" stop-color="#1d2540" stop-opacity="1"></stop><stop offset="85.55555555555554%" stop-color="#001220" stop-opacity="1"></stop></linearGradient></defs><defs><linearGradient id="grad2_0" x1="0%" y1="0%" x2="56.3%" y2="100%"><stop offset="14.444444444444446%" stop-color="#fbae3c" stop-opacity="1"></stop><stop offset="85.55555555555554%" stop-color="#fbae3c" stop-opacity="1"></stop></linearGradient></defs><defs><linearGradient id="grad2_1" x1="0%" y1="0%" x2="56.3%" y2="100%"><stop offset="14.444444444444446%" stop-color="#f48350" stop-opacity="1"></stop><stop offset="85.55555555555554%" stop-color="#fbae3c" stop-opacity="1"></stop></linearGradient></defs><defs><linearGradient id="grad2_2" x1="0%" y1="0%" x2="56.3%" y2="100%"><stop offset="14.444444444444446%" stop-color="#f48350" stop-opacity="1"></stop><stop offset="85.55555555555554%" stop-color="#d96162" stop-opacity="1"></stop></linearGradient></defs><defs><linearGradient id="grad2_3" x1="0%" y1="0%" x2="56.3%" y2="100%"><stop offset="14.444444444444446%" stop-color="#af4b6d" stop-opacity="1"></stop><stop offset="85.55555555555554%" stop-color="#d96162" stop-opacity="1"></stop></linearGradient></defs><defs><linearGradient id="grad2_4" x1="0%" y1="0%" x2="56.3%" y2="100%"><stop offset="14.444444444444446%" stop-color="#af4b6d" stop-opacity="1"></stop><stop offset="85.55555555555554%" stop-color="#7c3e6b" stop-opacity="1"></stop></linearGradient></defs><defs><linearGradient id="grad2_5" x1="0%" y1="0%" x2="56.3%" y2="100%"><stop offset="14.444444444444446%" stop-color="#49335c" stop-opacity="1"></stop><stop offset="85.55555555555554%" stop-color="#7c3e6b" stop-opacity="1"></stop></linearGradient></defs><defs><linearGradient id="grad2_6" x1="0%" y1="0%" x2="56.3%" y2="100%"><stop offset="14.444444444444446%" stop-color="#49335c" stop-opacity="1"></stop><stop offset="85.55555555555554%" stop-color="#1d2540" stop-opacity="1"></stop></linearGradient></defs><defs><linearGradient id="grad2_7" x1="0%" y1="0%" x2="56.3%" y2="100%"><stop offset="14.444444444444446%" stop-color="#001220" stop-opacity="1"></stop><stop offset="85.55555555555554%" stop-color="#1d2540" stop-opacity="1"></stop></linearGradient></defs><g transform="translate(960, 0)"><path d="M0 513C-64.7 491.1 -129.4 469.3 -181 437C-232.7 404.7 -271.3 361.9 -323.1 323.1C-375 284.4 -440.1 249.5 -474 196.3C-507.8 143.1 -510.4 71.6 -513 0L0 0Z" fill="#0c1c30"></path><path d="M0 448.9C-56.6 429.8 -113.2 410.6 -158.4 382.4C-203.6 354.1 -237.4 316.7 -282.8 282.8C-328.1 248.8 -385.1 218.3 -414.7 171.8C-444.3 125.2 -446.6 62.6 -448.9 0L0 0Z" fill="#312c4f"></path><path d="M0 384.8C-48.5 368.4 -97 352 -135.8 327.7C-174.5 303.5 -203.5 271.5 -242.4 242.4C-281.3 213.3 -330.1 187.1 -355.5 147.2C-380.8 107.3 -382.8 53.7 -384.7 0L0 0Z" fill="#623965"></path><path d="M0 320.6C-40.4 307 -80.8 293.3 -113.1 273.1C-145.4 252.9 -169.6 226.2 -202 202C-234.4 177.7 -275.1 155.9 -296.2 122.7C-317.4 89.4 -319 44.7 -320.6 0L0 0Z" fill="#96446e"></path><path d="M0 256.5C-32.3 245.6 -64.7 234.6 -90.5 218.5C-116.3 202.3 -135.6 181 -161.6 161.6C-187.5 142.2 -220.1 124.8 -237 98.2C-253.9 71.6 -255.2 35.8 -256.5 0L0 0Z" fill="#c55469"></path><path d="M0 192.4C-24.3 184.2 -48.5 176 -67.9 163.9C-87.2 151.8 -101.7 135.7 -121.2 121.2C-140.6 106.6 -165 93.6 -177.7 73.6C-190.4 53.7 -191.4 26.8 -192.4 0L0 0Z" fill="#e9705a"></path><path d="M0 128.3C-16.2 122.8 -32.3 117.3 -45.3 109.2C-58.2 101.2 -67.8 90.5 -80.8 80.8C-93.8 71.1 -110 62.4 -118.5 49.1C-126.9 35.8 -127.6 17.9 -128.2 0L0 0Z" fill="#fa9845"></path><path d="M0 64.1C-8.1 61.4 -16.2 58.7 -22.6 54.6C-29.1 50.6 -33.9 45.2 -40.4 40.4C-46.9 35.5 -55 31.2 -59.2 24.5C-63.5 17.9 -63.8 8.9 -64.1 0L0 0Z" fill="#fbae3c"></path></g><g transform="translate(0, 540)"><path d="M0 -513C65.7 -500.6 131.3 -488.1 192.1 -463.8C252.9 -439.5 308.7 -403.3 357.8 -357.8C406.9 -312.3 449.2 -257.5 474 -196.3C498.7 -135.1 505.8 -67.6 513 0L0 0Z" fill="#0c1c30"></path><path d="M0 -448.9C57.5 -438 114.9 -427.1 168.1 -405.8C221.3 -384.5 270.1 -352.9 313.1 -313.1C356 -273.3 393.1 -225.3 414.7 -171.8C436.4 -118.2 442.6 -59.1 448.9 0L0 0Z" fill="#312c4f"></path><path d="M0 -384.7C49.3 -375.4 98.5 -366.1 144.1 -347.8C189.6 -329.6 231.5 -302.5 268.3 -268.3C305.2 -234.2 336.9 -193.1 355.5 -147.2C374 -101.3 379.4 -50.7 384.8 0L0 0Z" fill="#623965"></path><path d="M0 -320.6C41 -312.8 82.1 -305.1 120.1 -289.9C158 -274.7 192.9 -252.1 223.6 -223.6C254.3 -195.2 280.8 -160.9 296.2 -122.7C311.7 -84.5 316.2 -42.2 320.6 0L0 0Z" fill="#96446e"></path><path d="M0 -256.5C32.8 -250.3 65.7 -244.1 96.1 -231.9C126.4 -219.7 154.4 -201.6 178.9 -178.9C203.4 -156.2 224.6 -128.8 237 -98.2C249.3 -67.6 252.9 -33.8 256.5 0L0 0Z" fill="#c55469"></path><path d="M0 -192.4C24.6 -187.7 49.3 -183 72 -173.9C94.8 -164.8 115.8 -151.2 134.2 -134.2C152.6 -117.1 168.5 -96.6 177.7 -73.6C187 -50.7 189.7 -25.3 192.4 0L0 0Z" fill="#e9705a"></path><path d="M0 -128.2C16.4 -125.1 32.8 -122 48 -115.9C63.2 -109.9 77.2 -100.8 89.4 -89.4C101.7 -78.1 112.3 -64.4 118.5 -49.1C124.7 -33.8 126.5 -16.9 128.3 0L0 0Z" fill="#fa9845"></path><path d="M0 -64.1C8.2 -62.6 16.4 -61 24 -58C31.6 -54.9 38.6 -50.4 44.7 -44.7C50.9 -39 56.2 -32.2 59.2 -24.5C62.3 -16.9 63.2 -8.4 64.1 0L0 0Z" fill="#fbae3c"></path></g></svg>