<svg id="visual" viewBox="0 0 960 540" width="960" height="540" xmlns="http://www.w3.org/2000/svg" xmlns:xlink="http://www.w3.org/1999/xlink" version="1.1"><rect x="0" y="0" width="960" height="540" fill="#FFFFFF"></rect><path d="M0 99L12.3 83.2C24.7 67.3 49.3 35.7 74 32C98.7 28.3 123.3 52.7 148 67.5C172.7 82.3 197.3 87.7 221.8 85.7C246.3 83.7 270.7 74.3 295.2 65.8C319.7 57.3 344.3 49.7 369 52.7C393.7 55.7 418.3 69.3 443 78.2C467.7 87 492.3 91 517 80.5C541.7 70 566.3 45 591 54C615.7 63 640.3 106 664.8 115.7C689.3 125.3 713.7 101.7 738.2 83.8C762.7 66 787.3 54 812 45.2C836.7 36.3 861.3 30.7 886 28.2C910.7 25.7 935.3 26.3 947.7 26.7L960 27L960 0L947.7 0C935.3 0 910.7 0 886 0C861.3 0 836.7 0 812 0C787.3 0 762.7 0 738.2 0C713.7 0 689.3 0 664.8 0C640.3 0 615.7 0 591 0C566.3 0 541.7 0 517 0C492.3 0 467.7 0 443 0C418.3 0 393.7 0 369 0C344.3 0 319.7 0 295.2 0C270.7 0 246.3 0 221.8 0C197.3 0 172.7 0 148 0C123.3 0 98.7 0 74 0C49.3 0 24.7 0 12.3 0L0 0Z" fill="#0066FF" stroke-linecap="round" stroke-linejoin="miter"></path></svg>