<svg xmlns="http://www.w3.org/2000/svg" viewBox="0 0 500 500"><g id="freepik--background-complete--inject-14"><path d="M60.73,78.58l13.12-.28,6.66-.11c2.23,0,4.46,0,6.7,0h.44v.45l.06,11.19v.5h-.5L74,90.21c-4.42,0-8.83-.11-13.24-.16h-.28v-.27c0-1.9.09-3.78.13-5.65Zm0,0,.14,5.66c0,1.86.11,3.7.13,5.53l-.27-.27c4.41,0,8.82-.16,13.24-.16l13.24-.07-.5.5.05-11.19.45.45C85,79,82.85,79,80.66,79l-6.58-.11Z" style="fill:#ebebeb"></path><path d="M75.5,64.47l13.12-.28,6.66-.11c2.23,0,4.47,0,6.7,0h.44v.45l.06,11.19v.5H102L88.74,76.1c-4.42,0-8.83-.11-13.24-.16h-.28v-.27c0-1.9.09-3.78.13-5.65Zm0,0,.14,5.66c0,1.86.11,3.7.13,5.53l-.27-.27c4.41,0,8.82-.16,13.24-.16L102,75.16l-.5.5,0-11.19.45.45c-2.18,0-4.36,0-6.55-.06l-6.58-.11Z" style="fill:#ebebeb"></path><path d="M101.18,208.24,114.3,208l6.66-.11c2.23,0,4.47,0,6.7-.06h.44v.45l.06,11.19v.5h-.5l-13.24-.07c-4.42,0-8.83-.11-13.24-.16h-.28v-.27c0-1.9.09-3.79.13-5.66Zm0,0,.14,5.65c0,1.86.11,3.71.13,5.54l-.27-.28c4.41-.05,8.82-.15,13.24-.16l13.24-.06-.5.5,0-11.19.45.44c-2.19,0-4.36,0-6.55-.05l-6.58-.11Z" style="fill:#ebebeb"></path><path d="M116,194.13l13.12-.28,6.66-.11c2.23-.05,4.47,0,6.7-.06h.44v.45l.06,11.19v.5h-.5l-13.24-.07c-4.42,0-8.83-.11-13.24-.16h-.28v-.27c0-1.9.09-3.79.14-5.66Zm0,0,.14,5.65c0,1.86.11,3.71.13,5.54L116,205c4.41,0,8.82-.15,13.24-.16l13.24-.06-.5.5,0-11.19.45.44c-2.18,0-4.36,0-6.55,0l-6.58-.11Z" style="fill:#ebebeb"></path><path d="M46,64.47l13.13-.28,6.66-.11c2.22,0,4.46,0,6.69,0h.45v.45l.05,11.19v.5h-.51L59.19,76.1c-4.41,0-8.82-.11-13.24-.16h-.27v-.27c0-1.9.09-3.78.13-5.65Zm0,0,.15,5.66c0,1.86.11,3.7.13,5.53L46,75.39c4.42,0,8.83-.16,13.24-.16l13.24-.07-.5.5L72,64.47l.44.45c-2.18,0-4.35,0-6.54-.06l-6.58-.11Z" style="fill:#ebebeb"></path><path d="M439.27,307.5l-13.12.27-6.66.12c-2.23,0-4.46,0-6.7.05h-.44v-.44l-.06-11.19v-.51h.5l13.24.06c4.42,0,8.83.11,13.24.16h.28v.27c0,1.89-.09,3.78-.13,5.65Zm0,0-.14-5.66c0-1.86-.11-3.7-.13-5.53l.27.27c-4.41.05-8.82.16-13.24.16l-13.24.07.5-.5-.05,11.19-.45-.45c2.19,0,4.36,0,6.55.05l6.58.12Z" style="fill:#ebebeb"></path><path d="M454.05,321.61l-13.13.27-6.66.12c-2.23,0-4.46,0-6.69.05h-.45v-.44l-.05-11.19v-.51h.51l13.24.06c4.41,0,8.82.11,13.24.16h.27v.27c0,1.89-.09,3.78-.13,5.65Zm0,0L453.9,316c0-1.86-.11-3.7-.13-5.53l.28.27c-4.42.05-8.83.16-13.24.16l-13.24.06.5-.49L428,321.61l-.44-.45c2.18,0,4.35,0,6.54,0l6.58.12Z" style="fill:#ebebeb"></path><path d="M87.43,321.61l-13.12.27-6.66.12c-2.23,0-4.47,0-6.7.05h-.44v-.44l-.06-11.19v-.51H61l13.24.06c4.42,0,8.83.11,13.24.16h.28v.27c0,1.89-.09,3.78-.14,5.65Zm0,0L87.29,316c0-1.86-.11-3.7-.13-5.53l.27.27c-4.41.05-8.82.16-13.24.16L61,310.91l.5-.49-.05,11.19-.45-.45c2.18,0,4.36,0,6.55,0l6.58.12Z" style="fill:#ebebeb"></path><path d="M412.68,64.47l13.13-.28,6.66-.11c2.22,0,4.46,0,6.69,0h.45v.45l.05,11.19v.5h-.5l-13.24-.06c-4.41,0-8.83-.11-13.24-.16h-.27v-.27c0-1.9.08-3.78.13-5.65Zm0,0,.14,5.66c.05,1.86.12,3.7.13,5.53l-.27-.27c4.41,0,8.83-.16,13.24-.16l13.24-.07-.5.5.06-11.19.44.45c-2.18,0-4.36,0-6.54-.06L426,64.75Z" style="fill:#ebebeb"></path><polygon points="52.93 102.4 144.97 102.4 144.97 54.1 52.93 54.1 52.93 54.1 52.93 102.4 52.93 102.4" style="fill:#ebebeb"></polygon><polygon points="159.22 102.4 144.97 102.4 144.97 87.57 159.22 102.4" style="fill:#ebebeb"></polygon><rect x="61.74" y="62.45" width="74.42" height="0.92" style="fill:#fff"></rect><rect x="61.74" y="67.41" width="46.15" height="0.92" style="fill:#fff"></rect><rect x="61.74" y="77.32" width="63.22" height="0.92" style="fill:#fff"></rect><rect x="61.74" y="82.28" width="74.42" height="0.92" style="fill:#fff"></rect><rect x="61.74" y="87.23" width="74.42" height="0.92" style="fill:#fff"></rect><rect x="61.74" y="92.19" width="36.69" height="0.92" style="fill:#fff"></rect><rect x="355.03" y="113.54" width="92.04" height="42.6" style="fill:#dbdbdb"></rect><polygon points="340.78 156.14 355.03 156.14 355.03 141.31 340.78 156.14" style="fill:#dbdbdb"></polygon><rect x="364.02" y="135.78" width="66.85" height="0.92" style="fill:#fff"></rect><rect x="364.02" y="140.74" width="56.37" height="0.92" style="fill:#fff"></rect><rect x="364.02" y="125.87" width="59.43" height="0.92" style="fill:#fff"></rect><rect x="364.02" y="120.92" width="72.73" height="0.92" style="fill:#fff"></rect><rect x="364.02" y="145.7" width="60.57" height="0.92" style="fill:#fff"></rect><rect x="90.26" y="113.51" width="92.04" height="28.07" style="fill:#dbdbdb"></rect><polygon points="76.01 141.57 90.26 141.57 90.26 126.74 76.01 141.57" style="fill:#dbdbdb"></polygon><rect x="99.25" y="121.22" width="66.85" height="0.92" style="fill:#fff"></rect><rect x="99.25" y="126.18" width="56.37" height="0.92" style="fill:#fff"></rect><rect x="99.25" y="131.13" width="60.57" height="0.92" style="fill:#fff"></rect><path d="M406.9,70.27a17.85,17.85,0,0,0,4.52,3.55,18.4,18.4,0,1,0-4.52-3.55Z" style="fill:#ebebeb"></path><path d="M415.56,54.24a5.6,5.6,0,1,0,6.89-3.9A5.59,5.59,0,0,0,415.56,54.24Z" style="fill:#fff"></path><path d="M407.51,68l-.61,2.23a17.85,17.85,0,0,0,4.52,3.55,18.29,18.29,0,0,0,14.13,1.6l.61-2.22A9.68,9.68,0,0,0,407.51,68Z" style="fill:#fff"></path><path d="M71.88,209.9a22.8,22.8,0,0,0,28.27-23.66A22.79,22.79,0,1,0,71.88,209.9Z" style="fill:#ebebeb"></path><path d="M70,187.42a6.93,6.93,0,1,0,4.51-8.71A6.93,6.93,0,0,0,70,187.42Z" style="fill:#fff"></path><path d="M71,207.17l.87,2.73a22.76,22.76,0,0,0,22.83-7.28l-.87-2.71A12,12,0,1,0,71,207.17Z" style="fill:#fff"></path></g><g id="freepik--Shadow--inject-14"><ellipse cx="250" cy="435.68" rx="194.85" ry="25.28" style="fill:#ebebeb"></ellipse></g><g id="freepik--Plant--inject-14"><path d="M95.82,311.72a68.92,68.92,0,0,0-2.21,12.47c.12.21.1,1,0,.77,0,.68-1.07.56-1.07-.12,0-.44,0-.88,0-1.31-2.44-3-6-4.94-8.84-7.57a16.51,16.51,0,0,1-4.84-7.7c-2.37-8.18-.15-16.84-3-25-2.46-7-6.87-13.14-10.61-19.51-3.94-6.73-6.84-13.81-7.14-21.7-.23-6.05.49-14.1,5.09-18.62,4.88-4.81,10.93-1.21,14.67,3.08,10.82,12.42,15.83,28.13,17.86,44.19,1.12,8.89,2.28,17.83,2,26.8A72.53,72.53,0,0,1,95.82,311.72Z" style="fill:#EC0000"></path><path d="M93.66,327.45a152.3,152.3,0,0,0-.3-25.18s0,0,0-.09c.13-6.8.67-13.58.41-20.4a121.39,121.39,0,0,0-3-21.88c0-.08-.15-.06-.13,0a143.87,143.87,0,0,1,2.37,21.4c.13,3.85.11,7.69-.1,11.54-.06,1.25-.18,2.51-.26,3.77h0A134.8,134.8,0,0,0,72.45,243c-.14-.22-.54,0-.4.24A139.65,139.65,0,0,1,88.53,283c-5.2-9.64-13.07-17.58-18.9-26.85a.05.05,0,0,0-.09.06c5.24,10.32,13.9,18.46,19.42,28.62q1.44,6.23,2.33,12.54a141,141,0,0,1,1.25,17.42c-3.17-5.93-6.46-11.6-9.06-17.87-.07-.17-.31-.06-.25.11,2.21,6.51,5.18,13.53,9.33,19.08q0,6.19-.34,12.37c-.65,11-2.53,21.84-3.4,32.79a.26.26,0,0,0,.51.06A252.31,252.31,0,0,0,93.66,327.45Z" style="fill:#263238"></path><path d="M82,242.68c0-.08-.15,0-.12,0,2,5.55,3.14,11.18,4.59,16.87a.21.21,0,0,0,.41-.07C86.28,253.76,84.22,248,82,242.68Z" style="fill:#263238"></path><path d="M133,266a82.91,82.91,0,0,1-4.61,9.48C124.74,282,121,288,120.29,295.66c-.31,3.41-.42,6.84-1.46,10.13a30.25,30.25,0,0,1-4,7.93c-3.92,5.71-8.82,10.63-12.45,16.55a69.49,69.49,0,0,0-8.27,20c-.09.38-.7.28-.61-.11a.24.24,0,0,0,0-.08.15.15,0,0,1,0-.08c-.58-16.4.73-32.92,5.73-48.62a166.33,166.33,0,0,1,8-20.22c2.67-5.7,6-11.17,10.71-15.43,3.05-2.74,9.67-7.95,14-5.2C134,261.81,133.79,263.9,133,266Z" style="fill:#EC0000"></path><path d="M116.5,303.11A133.32,133.32,0,0,1,107,316.8c-1.58,2.08-3.19,4.13-4.78,6.2-.75,1-1.59,2-2.27,3,.43-1.72.85-3.45,1.29-5.17,2.12-8.28,4.15-16.64,7.3-24.6a167.21,167.21,0,0,1,11.38-22.31c.11-.19-.19-.33-.31-.15-3.46,5.7-7,11.39-9.89,17.4a94,94,0,0,0-4.2,10.31,160.25,160.25,0,0,1,5.59-22c0-.07-.07-.12-.09-.05a75,75,0,0,0-5.8,22.93s0,0,0,0q-1.07,3.19-2,6.45c-2.58,9.17-4.85,18.43-7,27.73a99.62,99.62,0,0,1,1.58-18.23c0-.14-.18-.17-.21,0a57.56,57.56,0,0,0-1.58,19.21q-1.2,5.31-2.33,10.62c-1.61,7.56-3.59,15.25-4.53,22.92a.15.15,0,0,0,.3,0c1.13-4.13,1.8-8.42,2.72-12.61s1.88-8.39,2.85-12.58q2.15-9.15,4.44-18.26c1-2.23,3-4.2,4.45-6.07,1.61-2.05,3.23-4.1,4.8-6.19a92.65,92.65,0,0,0,7.88-12.2C116.69,303.09,116.55,303,116.5,303.11Z" style="fill:#263238"></path><path d="M117.2,296.1a85,85,0,0,0-9.32,14.81c0,.07.07.14.11.07,3.14-4.91,6.22-9.87,9.35-14.79C117.4,296.11,117.26,296,117.2,296.1Z" style="fill:#263238"></path><path d="M47.42,281.49c2.12,3.66,4.55,8.05,3.63,12.44-.57,2.79-2.61,5-3,7.88-.82,6.26,5.42,10.4,9.93,13.36,11.26,7.38,26.7,14,28.74,29.05.08.53,1,.4.94-.12a.3.3,0,0,0,0-.1s0-.05,0-.09a57.66,57.66,0,0,0-.21-23c-1.68-7.77-5.07-14.76-9.07-21.59-6.78-11.55-14-23.39-24.2-32.24-2.83-2.45-8.64-6.85-10.9-1.32C41.14,271.09,44.81,277,47.42,281.49Z" style="fill:#EC0000"></path><path d="M57.72,306c7.46,8.08,19.33,12.61,25.75,21.66a90.76,90.76,0,0,0-19.79-37.18.29.29,0,0,1,.41-.41,73.33,73.33,0,0,1,16.17,23.42,104.84,104.84,0,0,0-7-17.81.19.19,0,0,1,.33-.19,68.13,68.13,0,0,1,7.51,20C89.6,336,90.38,360,88.61,381.62a.25.25,0,0,1-.49,0c.49-17,.22-34.34-3.86-51l-.27-1c-7-9.74-18.8-14.26-26.4-23.51C57.52,306,57.64,305.9,57.72,306Z" style="fill:#263238"></path><path d="M56,299.05c3.92,3.6,7.77,7.27,11.7,10.86,0,0,0,.11-.06.08a57.29,57.29,0,0,1-11.87-10.7A.17.17,0,0,1,56,299.05Z" style="fill:#263238"></path><path d="M55.37,283.48A123.47,123.47,0,0,0,67.09,299.6a.07.07,0,0,1-.1.1,56.82,56.82,0,0,1-11.83-16.1A.12.12,0,0,1,55.37,283.48Z" style="fill:#263238"></path><polygon points="73.01 396.86 107.32 396.86 102.7 350.69 78.29 350.69 73.01 396.86" style="fill:#455a64"></polygon><polygon points="77.43 358.19 103.45 358.19 102.7 350.69 78.29 350.69 77.43 358.19" style="fill:#263238"></polygon><rect x="74.08" y="345.57" width="32.17" height="7.37" transform="translate(180.33 698.52) rotate(180)" style="fill:#455a64"></rect></g><g id="freepik--Floor--inject-14"><polygon points="42.22 396.86 94.16 396.61 146.11 396.52 250 396.36 353.89 396.52 405.84 396.61 457.78 396.86 405.84 397.1 353.89 397.19 250 397.36 146.11 397.19 94.16 397.1 42.22 396.86" style="fill:#263238"></polygon></g><g id="freepik--Device--inject-14"><rect x="62.84" y="117.78" width="374.31" height="250.43" rx="12.89" transform="translate(493 -7) rotate(90)" style="fill:#263238"></rect><rect x="135.64" y="82.04" width="229.01" height="322.14" style="fill:#fff"></rect><rect x="248.05" y="43.8" width="3.89" height="54.5" rx="1.25" transform="translate(321.04 -178.95) rotate(90)" style="fill:#37474f"></rect><circle cx="250" cy="416.84" r="7.05" style="fill:#37474f"></circle><rect x="135.64" y="82.04" width="229.01" height="322.14" style="fill:#fff"></rect><rect x="135.64" y="82.04" width="229.01" height="83.55" style="fill:#EC0000"></rect><g id="freepik--u5Zjqx--inject-14"><path d="M334.85,92.25c-.13.12-.25.24-.37.37l-.21.2a5,5,0,0,0-7.06,0l-.2-.21-.36-.36h0l0,0c.15-.14.3-.28.46-.41a5.7,5.7,0,0,1,1.07-.68,5.53,5.53,0,0,1,1.42-.48c.23,0,.47-.06.71-.09H331l.48,0a5.82,5.82,0,0,1,1.31.31,5.91,5.91,0,0,1,.88.42,5.45,5.45,0,0,1,.84.58l.39.35Z" style="fill:#fff"></path><path d="M328.37,94c-.19-.2-.38-.39-.58-.58a4,4,0,0,1,2.36-1.18,4.12,4.12,0,0,1,3.54,1.17l-.58.58a3.34,3.34,0,0,0-4.74,0Z" style="fill:#fff"></path><path d="M332.53,94.55l-.58.58a1.71,1.71,0,0,0-2.42,0l-.58-.57A2.52,2.52,0,0,1,332.53,94.55Z" style="fill:#fff"></path><path d="M331.26,95.65a.52.52,0,1,1-.52-.52A.52.52,0,0,1,331.26,95.65Z" style="fill:#fff"></path></g><path d="M351.7,96.65H339.42V91H351.7ZM340,96h11V91.59H340Z" style="fill:#fff"></path><rect x="340.44" y="91.93" width="7.92" height="3.76" style="fill:#fff"></rect><rect x="351.71" y="92.29" width="1.09" height="3.04" style="fill:#fff"></rect><rect x="199.64" y="208.81" width="82.08" height="11.75" style="fill:#EC0000"></rect><rect x="288.62" y="208.81" width="11.75" height="11.75" style="fill:#dbdbdb"></rect><path d="M292.13,214.68a.73.73,0,1,1-.73-.73A.73.73,0,0,1,292.13,214.68Z" style="fill:#263238"></path><path d="M295.22,214.68a.73.73,0,1,1-.73-.73A.73.73,0,0,1,295.22,214.68Z" style="fill:#263238"></path><path d="M298.31,214.68a.73.73,0,1,1-.73-.73A.73.73,0,0,1,298.31,214.68Z" style="fill:#263238"></path><polygon points="152.56 114.09 147.2 109.07 152.56 104.05 153.39 104.93 148.98 109.07 153.39 113.2 152.56 114.09" style="fill:#fff"></polygon><path d="M352.8,105.94a1.06,1.06,0,1,1-2.11,0,1.06,1.06,0,0,1,2.11,0Z" style="fill:#fff"></path><path d="M352.8,109.69a1.06,1.06,0,1,1-2.11,0,1.06,1.06,0,0,1,2.11,0Z" style="fill:#fff"></path><path d="M352.8,113.44a1.06,1.06,0,1,1-2.11,0,1.06,1.06,0,0,1,2.11,0Z" style="fill:#fff"></path><rect x="186.47" y="103.08" width="127.06" height="12.39" style="opacity:0.1"></rect><path d="M235.22,112l-1,.76-1.86-2.45-.67-.89a1.63,1.63,0,0,0,.38-.22,1.61,1.61,0,0,0,.52-.67l.72,1Z" style="fill:#fff"></path><path d="M233.25,106.26a2.73,2.73,0,1,0-.89,4.07,2.66,2.66,0,0,0,.95-.83A2.72,2.72,0,0,0,233.25,106.26Zm-1.18,3a1.63,1.63,0,0,1-.38.22,1.64,1.64,0,0,1-1.6-2.82,1.64,1.64,0,0,1,2.29.31,1.63,1.63,0,0,1-.31,2.29Z" style="fill:#fff"></path><path d="M240.37,110.58a.5.5,0,0,1,.69-.06,3,3,0,0,0,1.8.72,2,2,0,0,0,1.17-.35.85.85,0,0,0,.41-.67.54.54,0,0,0-.09-.31,1.05,1.05,0,0,0-.28-.28,3.62,3.62,0,0,0-1.29-.44h0a4.89,4.89,0,0,1-1.21-.37,2,2,0,0,1-.88-.73,1.46,1.46,0,0,1-.21-.77,1.74,1.74,0,0,1,.75-1.37,2.79,2.79,0,0,1,1.63-.5,3.7,3.7,0,0,1,2,.75.49.49,0,0,1,.13.67.48.48,0,0,1-.67.14,2.72,2.72,0,0,0-1.51-.6,1.8,1.8,0,0,0-1.06.32.73.73,0,0,0-.35.59.5.5,0,0,0,.06.26.89.89,0,0,0,.26.25,3.08,3.08,0,0,0,1.17.41h0a5.36,5.36,0,0,1,1.3.4,2.18,2.18,0,0,1,.94.78,1.5,1.5,0,0,1,.22.8,1.8,1.8,0,0,1-.8,1.45,3,3,0,0,1-1.74.54,4.06,4.06,0,0,1-2.41-.94A.5.5,0,0,1,240.37,110.58Z" style="fill:#fff"></path><path d="M246.42,109.87a2.32,2.32,0,0,1,2.29-2.35A2.25,2.25,0,0,1,251,109.7v0a.25.25,0,0,1,0,.08.46.46,0,0,1-.49.38h-3a1.28,1.28,0,0,0,.32.62,1.49,1.49,0,0,0,.9.42,1.57,1.57,0,0,0,1-.23.54.54,0,0,1,.71,0,.44.44,0,0,1,0,.61,2.4,2.4,0,0,1-1.69.62A2.33,2.33,0,0,1,246.42,109.87Zm1-.46h2.66a1.53,1.53,0,0,0-1.39-1A1.32,1.32,0,0,0,247.44,109.41Z" style="fill:#fff"></path><path d="M256.45,109.88v1.84a.51.51,0,0,1-.5.5.52.52,0,0,1-.49-.41,2.08,2.08,0,0,1-1.25.41,2.17,2.17,0,0,1-1.6-.69,2.46,2.46,0,0,1,0-3.31,2.18,2.18,0,0,1,1.6-.7,2.15,2.15,0,0,1,1.25.41.52.52,0,0,1,.49-.41.5.5,0,0,1,.5.5Zm-1,0a1.39,1.39,0,0,0-.36-1,1.16,1.16,0,0,0-.88-.39,1.1,1.1,0,0,0-.87.39,1.35,1.35,0,0,0-.36,1,1.42,1.42,0,0,0,.36,1,1.18,1.18,0,0,0,.87.36,1.25,1.25,0,0,0,.88-.36A1.46,1.46,0,0,0,255.45,109.88Z" style="fill:#fff"></path><path d="M261.19,108a.5.5,0,0,1-.5.49.89.89,0,0,0-.56.18,1.71,1.71,0,0,0-.44.45,2.8,2.8,0,0,0-.38.79v1.79a.52.52,0,0,1-.52.5.51.51,0,0,1-.5-.5V108a.49.49,0,0,1,.5-.49.5.5,0,0,1,.52.49v.06a1.7,1.7,0,0,1,.19-.19,2.15,2.15,0,0,1,1.19-.36A.49.49,0,0,1,261.19,108Z" style="fill:#fff"></path><path d="M261.85,109.88a2.4,2.4,0,0,1,2.39-2.36,2.49,2.49,0,0,1,1.5.51.53.53,0,0,1,.1.7.49.49,0,0,1-.7.09,1.59,1.59,0,0,0-.9-.3,1.35,1.35,0,1,0,0,2.7,1.54,1.54,0,0,0,.9-.3.51.51,0,0,1,.7.1.53.53,0,0,1-.1.7,2.62,2.62,0,0,1-1.5.5A2.39,2.39,0,0,1,261.85,109.88Z" style="fill:#fff"></path><path d="M268.6,111.7a.52.52,0,0,1-.53.52.53.53,0,0,1-.5-.39.44.44,0,0,1,0-.13v-5.55a.53.53,0,0,1,1.05,0v1.64a2.13,2.13,0,0,1,1-.27,2.05,2.05,0,0,1,2,2.06v2.12a.52.52,0,1,1-1,0v-2.12a1,1,0,1,0-2,0Z" style="fill:#fff"></path><path d="M166.55,251.31a7.11,7.11,0,0,1-2.1.87,7.28,7.28,0,0,1-8.81-5.34,7.29,7.29,0,1,1,10.91,4.47Z" style="fill:#dbdbdb"></path><path d="M164.94,244.27a2.22,2.22,0,1,1-2.22-2.22A2.22,2.22,0,0,1,164.94,244.27Z" style="fill:#fff"></path><path d="M166.55,250.39v.92a7.11,7.11,0,0,1-2.1.87,7.22,7.22,0,0,1-5.57-.88v-.91a3.84,3.84,0,0,1,7.67,0Z" style="fill:#fff"></path><path d="M341.55,240.33a.49.49,0,0,1,.48.48.48.48,0,0,1-.48.48.47.47,0,0,1-.48-.48A.48.48,0,0,1,341.55,240.33Z"></path><path d="M343,240.33a.49.49,0,0,1,.48.48.48.48,0,0,1-.48.48.47.47,0,0,1-.48-.48A.48.48,0,0,1,343,240.33Z"></path><path d="M344.53,240.33a.49.49,0,0,1,.48.48.48.48,0,0,1-.48.48.47.47,0,0,1-.48-.48A.48.48,0,0,1,344.53,240.33Z"></path><polygon points="156.3 260.47 179.97 260.25 199.55 260.12 238.7 260.01 257.35 260.12 276.93 260.25 296.51 260.47 276.93 260.69 257.35 260.82 238.7 260.92 199.55 260.82 179.97 260.69 156.3 260.47" style="fill:#263238"></polygon><path d="M156.3,264.62c11-.19,26.87-.28,37.92-.35l33.15-.11,33.16.11,9.29.35-9.29.35-33.16.1-33.15-.1C183.17,264.89,167.35,264.81,156.3,264.62Z" style="fill:#263238"></path><path d="M156.3,269.41c12-.19,29.28-.27,41.33-.35l36.13-.1,36.12.1,10.13.35-10.13.35-36.12.1-36.13-.1C185.58,269.69,168.34,269.6,156.3,269.41Z" style="fill:#263238"></path><rect x="176.11" y="239.53" width="43.89" height="4.75" style="fill:#455a64"></rect><rect x="176.11" y="246.64" width="35.03" height="2.87" style="fill:#dbdbdb"></rect><path d="M166.55,298.14a7.41,7.41,0,0,1-2.1.88,7.29,7.29,0,1,1,2.1-.88Z" style="fill:#dbdbdb"></path><path d="M164.94,291.11a2.22,2.22,0,1,1-2.22-2.22A2.22,2.22,0,0,1,164.94,291.11Z" style="fill:#fff"></path><path d="M166.55,297.23v.91a7.41,7.41,0,0,1-2.1.88,7.3,7.3,0,0,1-5.57-.88v-.91a3.84,3.84,0,1,1,7.67,0Z" style="fill:#fff"></path><path d="M341.55,287.16a.49.49,0,0,1,.48.49.48.48,0,0,1-.48.47.47.47,0,0,1-.48-.47A.48.48,0,0,1,341.55,287.16Z"></path><path d="M343,287.16a.49.49,0,0,1,.48.49.48.48,0,0,1-.48.47.47.47,0,0,1-.48-.47A.48.48,0,0,1,343,287.16Z"></path><path d="M344.53,287.16a.49.49,0,0,1,.48.49.48.48,0,0,1-.48.47.47.47,0,0,1-.48-.47A.48.48,0,0,1,344.53,287.16Z"></path><rect x="155.43" y="308.47" width="189.21" height="65.33" transform="translate(500.07 682.27) rotate(180)" style="fill:#EC0000"></rect><path d="M173.92,327.28a8.54,8.54,0,1,0,6.71-6.7A8.55,8.55,0,0,0,173.92,327.28Z" style="opacity:0.2"></path><polygon points="238.23 362.12 344.64 362.12 291.44 322.94 238.23 362.12" style="opacity:0.2"></polygon><polygon points="197.41 362.15 285.26 362.15 241.33 333.14 197.41 362.15" style="fill:#EC0000"></polygon><polygon points="197.41 362.15 285.26 362.15 241.33 333.14 197.41 362.15" style="opacity:0.30000000000000004"></polygon><rect x="155.43" y="362.12" width="189.21" height="11.68" style="fill:#EC0000"></rect><rect x="155.43" y="362.12" width="189.21" height="11.68" style="opacity:0.30000000000000004"></rect><rect x="176.11" y="286.95" width="43.89" height="4.75" style="fill:#455a64"></rect><rect x="176.11" y="294.06" width="35.03" height="2.87" style="fill:#dbdbdb"></rect></g><g id="freepik--character-2--inject-14"><path d="M269.92,197.61a36.88,36.88,0,0,1-10.85,4.55,37.67,37.67,0,1,1,10.85-4.55Z" style="fill:#a6a6a6"></path><path d="M278.23,189a.45.45,0,0,1-.39.48H276c-1.42-4.69-3-8.45-2.62-7a25.11,25.11,0,0,1,.82,7l-3.63-.05c-1-8.17-2.58-14.27-2.55-12.42.1,7.48-.43,9.85-1,12.37-8.76-.14-20.24-.47-28.53-.9-.75-4.52-1.35-9.4-1.51-9.07-1.25,2.44-1.74,6.08-1.9,8.89-2.64-.15-4.75-.33-6-.51,0,0-.43-3.79-.46-5a27.29,27.29,0,0,1,1.38-9.33,47.58,47.58,0,0,1,4.25-8.47l0,0s0,0,0,0a27.12,27.12,0,0,0,2.49-5.67l0,0a27.54,27.54,0,0,0,.9-4.43c.65-5.48,3.78-10,8.68-11.19,9.57-8.6,18.53-4.12,20.94,3.12.24.71.46,1.51.67,2.39v0c.78,3.24,1.42,7.43,2,10.67,0,0,0,0,0,0a.08.08,0,0,0,0,0h0a32.68,32.68,0,0,0,.91,3.76C272.91,169.54,278,173.15,278.23,189Z" style="fill:#263238"></path><path d="M244.14,145a10.14,10.14,0,0,0-6,8,28.24,28.24,0,0,1-1.61,6.76,23.72,23.72,0,0,1-3.94,5.78,18.16,18.16,0,0,0-4.63,9.61,32.41,32.41,0,0,0,.48,12.54,0,0,0,0,0,0,0,34.29,34.29,0,0,1,.21-13c.9-4.31,3.34-6.9,5.86-10.06a18.59,18.59,0,0,0,3.89-8.68c.34-2,.41-4,1.25-5.86a11.18,11.18,0,0,1,4.66-4.63C244.59,145.25,244.39,144.86,244.14,145Z" style="fill:#263238"></path><path d="M275.9,170.15c-2.08-3.27-4.29-6.09-5.41-10.05-1-3.61-1.52-7.38-2.57-11,0-.06-.1,0-.08,0,1.57,6.39,1.63,12.73,5.15,18.25,1.91,3,3.83,5.78,5,9.3a33,33,0,0,1,1.57,11.46c0,.14.17.15.18,0A26.9,26.9,0,0,0,275.9,170.15Z" style="fill:#263238"></path><path d="M273.47,195.11c-.65.53-1.32,1-2,1.49-.5.35-1,.69-1.54,1l-.1.06c-.49.31-1,.6-1.51.88l-.67.37A35.86,35.86,0,0,1,263,201q-.56.21-1.14.39c-.89.29-1.81.55-2.74.78l-.75.17c-.14-.27-.29-.53-.42-.79a2.79,2.79,0,0,1-.18-.34c-.34-.63-.67-1.24-1-1.83a3.79,3.79,0,0,1-.18-.34c-.33-.63-.64-1.24-.93-1.82-.06-.11-.12-.22-.17-.33-.33-.65-.63-1.27-.91-1.85-.06-.11-.11-.22-.16-.33q-.47-1-.84-1.83c-.05-.11-.1-.22-.14-.33l0-.11c-.21-.49-.45-1.07-.7-1.73,0-.11-.09-.23-.14-.35-.16-.4-.32-.83-.47-1.28-.07-.18-.14-.36-.2-.55l-.12-.34c-.2-.6-.41-1.22-.6-1.85,0-.11-.06-.22-.1-.34-.18-.62-.35-1.24-.49-1.85,0-.11-.06-.22-.08-.33l0-.13a16.29,16.29,0,0,1-.32-1.73,2,2,0,0,1-.05-.34,9.35,9.35,0,0,1-.11-1.86,1.88,1.88,0,0,1,0-.34,3.26,3.26,0,0,1,.63-1.91,1.82,1.82,0,0,1,.38-.35h0l.17-.08s0,0,0,0l.19-.08h.06l0,0h.05a3.27,3.27,0,0,1,1.35,0l.36.1a4.35,4.35,0,0,1,.51.17h0a14.44,14.44,0,0,1,2.75,1.46c.51.32,1.06.69,1.64,1.12a82.68,82.68,0,0,1,9.06,8.59C269.25,190.52,271.38,192.82,273.47,195.11Z" style="fill:#eb9481"></path><path d="M274.66,194.15c-.39.33-.78.65-1.19,1-.65.53-1.32,1-2,1.49-.5.35-1,.69-1.54,1l-.1.06c-.49.31-1,.6-1.51.88l-.67.37A35.86,35.86,0,0,1,263,201q-.56.21-1.14.39c-.89.29-1.81.55-2.74.78l-.75.17-.66.14c-.16-.3-.31-.6-.46-.9h0a2.1,2.1,0,0,0-.15-.3h0l0,0-.43-.87-.48-1c-.06-.11-.11-.22-.16-.33h0c-.3-.62-.6-1.23-.88-1.83h0l-.15-.33h0s0,0,0,0l-.79-1.67a.94.94,0,0,1-.06-.15h0l-.15-.33c-.29-.63-.57-1.24-.83-1.83l-.15-.33-.3-.67-.49-1.17h0c0-.11-.09-.23-.14-.34-.15-.36-.29-.7-.42-1l-.06-.15s0-.1-.05-.15h0c0-.11-.09-.22-.13-.32l-.06-.19c-.05-.11-.09-.22-.13-.33h0l0-.08c-.23-.62-.44-1.21-.61-1.77,0,0,0,0,0,0s-.06-.2-.1-.3c-.2-.65-.37-1.27-.5-1.85,0-.11,0-.22-.07-.33-.07-.31-.13-.6-.17-.89h0c0-.21-.07-.41-.1-.61a1.1,1.1,0,0,0,0-.18c0-.06,0-.12,0-.18a1.84,1.84,0,0,1,0-.33,1,1,0,0,0,0-.17c0-.05,0-.11,0-.16s0-.31,0-.46a8.91,8.91,0,0,1,.07-1.08c0-.12,0-.24.06-.34a3.51,3.51,0,0,1,.91-1.86l.07-.06h0a1.84,1.84,0,0,1,.49-.35h0l.17-.08s0,0,0,0l.19-.08.1,0h.05a3.56,3.56,0,0,1,.47-.1,4.32,4.32,0,0,1,.73,0H253a8,8,0,0,1,2,.49s0,0,0,0a11.88,11.88,0,0,1,1.77.82,29.87,29.87,0,0,1,5.29,3.73c1.7,1.45,3.55,3.18,5.47,5C269.87,189.18,272.3,191.68,274.66,194.15Z" style="fill:#EC0000"></path><path d="M271.46,196.6c-.5.35-1,.69-1.54,1l-.1.06c-.49.31-1,.6-1.51.88l-.67.37A35.86,35.86,0,0,1,263,201q-.56.21-1.14.39c-.89.29-1.81.55-2.74.78l-.75.17-.66.14c-.16-.3-.31-.6-.46-.9-.05-.1-.1-.2-.16-.3h0s0,0,0,0h0l-.43-.87c-.16-.33-.33-.65-.49-1-.05-.11-.1-.22-.16-.33-.3-.62-.6-1.23-.88-1.83h0l-.15-.33,0,0-.79-1.67-.07-.15-.15-.33c-.29-.63-.57-1.24-.83-1.83l-.15-.33-.3-.67-.5-1.17c0-.11-.09-.23-.14-.34-.15-.36-.29-.7-.42-1l-.06-.15a.47.47,0,0,1-.06-.15c0-.11-.09-.22-.13-.32l-.07-.18c0-.12-.09-.23-.13-.34l0-.08c-.23-.62-.44-1.21-.61-1.77,0,0,0,0,0,0a1.71,1.71,0,0,1-.09-.3h0c-.2-.65-.37-1.27-.5-1.85,0-.11,0-.22-.07-.33-.07-.31-.13-.6-.17-.89h0c0-.21-.07-.41-.1-.61a1.1,1.1,0,0,0,0-.18,1.1,1.1,0,0,1,0-.18l0-.33a1,1,0,0,1,0-.17c0-.05,0-.11,0-.16s0-.31,0-.46a8.91,8.91,0,0,1,.07-1.08c0-.12,0-.24.06-.34a3.51,3.51,0,0,1,.91-1.86l.07-.06h0a2.43,2.43,0,0,1,.49-.35h0l.17-.08s0,0,0,0l.25-.09,0,0h.05a3.56,3.56,0,0,1,.47-.1,4.32,4.32,0,0,1,.73,0l.15.16.11.11.31.33,1.7,1.81.32.33,1.29,1.37h0l.4.41.31.33,1.71,1.81.3.32,1.7,1.8.31.33,1.19,1.25,2.1,2.23Z" style="opacity:0.1"></path><path d="M269.82,197.67c-.49.31-1,.6-1.51.88l-.67.37A35.86,35.86,0,0,1,263,201q-.56.21-1.14.39c-.89.29-1.81.55-2.74.78l-.75.17-.66.14a37.3,37.3,0,0,1-16.24-.25l-1.14-.29c-.48-.13-.95-.27-1.42-.42a1.4,1.4,0,0,1-.29-.09l-.24-.08a.11.11,0,0,1-.08,0c-1-.31-1.9-.67-2.82-1.06l-.72-.32a35.43,35.43,0,0,1-3.36-1.72l-.52-.31-.5-.3c-.58-.36-1.14-.73-1.7-1.12l.15-.39c.05-.11.09-.22.14-.34.25-.64.51-1.28.77-1.9a3.45,3.45,0,0,1,.14-.34h0c.26-.65.54-1.29.82-1.91.05-.12.1-.23.16-.35.29-.65.59-1.29.89-1.9a3.78,3.78,0,0,1,.17-.35l.42-.83c.19-.37.38-.74.57-1.09h0a.36.36,0,0,1,0-.09.41.41,0,0,1,.05-.09l.1-.17c.35-.66.72-1.3,1.09-1.9a3.37,3.37,0,0,1,.22-.35c.42-.69.85-1.33,1.29-1.94a2.7,2.7,0,0,1,.25-.34l0,0h0c.29-.39.59-.77.9-1.12a5.2,5.2,0,0,1,.38-.44,3.4,3.4,0,0,1,.32-.34l.17-.18.17-.17a15.53,15.53,0,0,1,2.06-1.8,1.44,1.44,0,0,1,.25-.18,1.51,1.51,0,0,1,.26-.18l.27-.17h0a12.49,12.49,0,0,1,5.63-2.06A11.73,11.73,0,0,1,253,176.8c.15.08.3.15.44.24a2,2,0,0,1,.25.14l.06,0h0a1.64,1.64,0,0,1,.22.14h0a13.62,13.62,0,0,1,1.54,1.11,6.52,6.52,0,0,1,.65.68l.14.16.14.16h0c.42.47.91,1.06,1.5,1.79l.12.15h0l.13.17h0l1.44,1.82.25.32c.45.58.91,1.18,1.39,1.82h0a1.36,1.36,0,0,0,.12.17l.12.16c.32.41.63.83,1,1.26l.41.56c.07.11.16.22.24.33.33.44.65.88,1,1.33l.35.48.14.19c.47.65.93,1.3,1.4,2a1.27,1.27,0,0,0,.13.19l.09.13h0c.45.66.91,1.32,1.35,2s.9,1.34,1.32,2l.11.16.1.17C269.4,197,269.61,197.34,269.82,197.67Z" style="fill:#EC0000"></path><path d="M248,179.49l-.42,0c0,.11,0,.22,0,.34l.43,0,1.47-.06c0-.12,0-.24.06-.34Zm1.42,2.15-1.07,0q.14.16.3.33l.8,0ZM248,179.49l-.42,0c0,.11,0,.22,0,.34l.43,0,1.47-.06c0-.12,0-.24.06-.34Zm0,0-.42,0c0,.11,0,.22,0,.34l.43,0,1.47-.06c0-.12,0-.24.06-.34Zm0,0-.42,0c0,.11,0,.22,0,.34l.43,0,1.47-.06c0-.12,0-.24.06-.34Zm5.79-2.27h0l-.06,0-.23-.14H253l-2,.08h0l-3.3.14h-.44l-1.25.06-4.61.19-.59,0h-.07l-.27.17a1.51,1.51,0,0,0-.26.18h0l.6,0,5.12-.21,1.43-.06h.43l2.68-.11h.12l2.71-.11.68,0A1.64,1.64,0,0,0,253.78,177.22Zm-6.21,2.29c0,.11,0,.22,0,.34l.43,0,1.47-.06c0-.12,0-.24.06-.34l-1.52.06Zm.42,0-.42,0c0,.11,0,.22,0,.34l.43,0,1.47-.06c0-.12,0-.24.06-.34Zm0,0-.42,0c0,.11,0,.22,0,.34l.43,0,1.47-.06c0-.12,0-.24.06-.34Zm0,0-.42,0c0,.11,0,.22,0,.34l.43,0,1.47-.06c0-.12,0-.24.06-.34Zm1.42,2.15-1.07,0q.14.16.3.33l.8,0Zm6.93-2.33-.14-.16-1.18,0-5,.21-.47,0-1.52.06-.42,0-.86,0h0l-8.53.36h-.28l-.17.17-.17.18h.2l9.18-.38.62,0,.43,0,1.47-.06.51,0,5.38-.22,1.14-.05h0ZM246.62,184l-8.82.37c0,.11,0,.22,0,.34l8.66-.37.64,0c0-.11.06-.23.1-.34Zm0,0-8.82.37c0,.11,0,.22,0,.34l8.66-.37.64,0c0-.11.06-.23.1-.34Zm0,0-8.82.37c0,.11,0,.22,0,.34l8.66-.37.64,0c0-.11.06-.23.1-.34Zm0,0-8.82.37c0,.11,0,.22,0,.34l8.66-.37.64,0c0-.11.06-.23.1-.34Zm11.5-2.53h0l-.11-.15h0l-1,0-.37,0-6.59.27-.65,0h0l-1.07,0-.59,0-.51,0-9.77.41-1.53.06h0a2.7,2.7,0,0,0-.25.34h.18l1.67-.07,9.65-.39.52,0,.95,0,.8,0h0l.67,0,6.54-.27.68,0,.91,0h0A1.15,1.15,0,0,1,258.12,181.44Zm-20.32,2.9c0,.11,0,.22,0,.34l8.66-.37.64,0c0-.11.06-.23.1-.34l-.63,0Zm8.82-.37-8.82.37c0,.11,0,.22,0,.34l8.66-.37.64,0c0-.11.06-.23.1-.34Zm0,0-8.82.37c0,.11,0,.22,0,.34l8.66-.37.64,0c0-.11.06-.23.1-.34Zm0,0-8.82.37c0,.11,0,.22,0,.34l8.66-.37.64,0c0-.11.06-.23.1-.34Zm13.08-.54-.65,0-2.48.1-6,.25h-.14l-.72,0-2.5.11-.63,0-8.82.37-2.33.09-1.09,0a3.37,3.37,0,0,0-.22.35l1.25-.05,2.44-.1,8.66-.37.64,0,2.67-.12.73,0,.49,0h0l5.46-.23,2.84-.11.6,0h0A4,4,0,0,1,259.7,183.43Zm1.77,2.31a1.36,1.36,0,0,1-.12-.17h-.3L251,186l-.71,0h0l-3.76.16-.75,0-7.68.31-2.95.12-2.11.09h0a1.3,1.3,0,0,0-.08.17,421377227624.49,421377227624.49,0,0,0-.1.18h0l2.27-.09,3-.13,7.5-.31.75,0,4-.16.7,0,10.22-.42h.23Zm1.49,2-11.22.46-.65,0h0l-5.42.22-.8,0-4.11.17h-.06l-8.81.36a3.78,3.78,0,0,0-.17.35l13-.54h0l.78,0,5.7-.23h0l.64,0,11.34-.47C263.12,187.94,263,187.83,263,187.72Zm1.7,2.33-.14-.19-12,.49-.58,0-7.36.3-.76,0-13,.54c-.06.12-.11.23-.16.35l13-.53.75,0,7.68-.32h0l.57,0,12.08-.5Zm1.53,2.16a1.27,1.27,0,0,1-.13-.19l-12.64.52-.53,0-9.46.39h-.09l-.61,0-12.89.53h0a3.45,3.45,0,0,0-.14.34l12.88-.53.57,0h.12l9.78-.4.52,0,12.72-.53h0A.64.64,0,0,1,266.19,192.21Zm1.45,2.11-.12-.16-13.12.54-.53,0-11.58.48H242l-.43,0-12.69.52c0,.12-.09.23-.14.34l12.65-.52.4,0h.28l11.91-.49h0l.53,0,13.18-.54Zm1.43,2.16-.11-.16-13.49.56-.57,0h0l-13.19.55h-1.29l-9.58.4.52.31,8.87-.37h1.15l13.68-.57h0l.58,0,13.53-.56Zm-14.17.42h0l-13.19.55h-.82l-.2.34h.69l13.68-.57Zm1.67,2.13-.62,0h0l-16.05.66h-.73l-4.45.18.72.32,3.53-.15h.39l.34,0,16.41-.68h0l.64,0,10.89-.45.67-.37Zm-15.49-1.22h.29l13.68-.57-.15-.33h0l-13.19.55h-.82l-.2.34h.4Zm13.82-.91h0l-13.19.55h-.82l-.2.34h.69l13.68-.57Zm2.82,4.3-.69,0h0l-16.74.7,1.14.29,15.77-.65h0l.7,0,3.91-.16q.58-.18,1.14-.39Zm-1.78-2.14-16.05.66c-.07.12-.13.24-.2.35l16.41-.68C256.05,199.28,256,199.17,255.94,199.06Zm1.78,2.14-.69,0h0l-16.74.7,1.14.29,15.77-.65h0l.7,0A2.79,2.79,0,0,1,257.72,201.2Zm-1.78-2.14-16.05.66c-.07.12-.13.24-.2.35l16.41-.68C256.05,199.28,256,199.17,255.94,199.06Zm1.78,2.14-.69,0h0l-16.74.7,1.14.29,15.77-.65h0l.7,0A2.79,2.79,0,0,1,257.72,201.2Z" style="opacity:0.1"></path><path d="M247.57,179.51c0,.11,0,.22,0,.34a7,7,0,0,1-.1.75,11,11,0,0,1-.21,1.13c0,.11-.05.22-.07.34-.15.59-.33,1.22-.55,1.9,0,.11-.07.22-.11.34-.2.6-.43,1.23-.7,1.9l-.13.34c-.25.61-.52,1.25-.82,1.92l-.15.34,0,.07c-.28.63-.57,1.24-.85,1.83-.05.12-.11.24-.17.36-.31.66-.61,1.29-.93,1.91a2.6,2.6,0,0,1-.16.34c-.32.66-.64,1.3-1,1.91l-.18.34c-.34.67-.69,1.31-1,1.93a3.72,3.72,0,0,1-.19.34c-.36.67-.71,1.31-1.06,1.91l-.2.35c-.24.42-.47.82-.71,1.21-1-.31-1.9-.67-2.82-1.06l-.72-.32a35.43,35.43,0,0,1-3.36-1.72l-.52-.31-.5-.3c-.58-.36-1.14-.73-1.7-1.12a34,34,0,0,1-3.67-2.91c1.65-1.93,3.33-3.81,5-5.62s3.61-3.79,5.39-5.52l.7-.66c.27-.26.53-.5.79-.73l.39-.35.51-.44.42-.35a29.31,29.31,0,0,1,2.66-2l.56-.35c2.1-1.28,3.76-1.72,4.83-1.29a1.88,1.88,0,0,1,1,1,1.62,1.62,0,0,1,.13.33A5.31,5.31,0,0,1,247.57,179.51Z" style="fill:#eb9481"></path><path d="M248,179.49c0,.11,0,.23,0,.34a11.33,11.33,0,0,1-.13,1.28c0,.2-.06.4-.1.6l-.06.34c-.13.65-.28,1.3-.44,1.9,0,.11-.07.23-.1.34-.21.74-.42,1.4-.59,1.89-.05.12-.09.24-.13.34s-.14.41-.18.51c-.16.42-.35.89-.59,1.4,0,.11-.1.23-.15.35l0,.06c-.26.58-.56,1.19-.89,1.84l-.18.36c-.29.57-.6,1.16-.92,1.77a.64.64,0,0,0-.08.14,3.72,3.72,0,0,0-.19.34l-1.05,1.91-.19.35-1.1,1.93-.2.34c-.37.65-.75,1.29-1.12,1.91l-.21.36c-.27.45-.53.9-.78,1.33l-.24-.08a.11.11,0,0,1-.08,0c-1-.31-1.9-.67-2.82-1.06l-.72-.32a35.43,35.43,0,0,1-3.36-1.72l-.52-.31-.5-.3c-.58-.36-1.14-.73-1.7-1.12a34,34,0,0,1-3.67-2.91c-.24-.2-.47-.42-.7-.64,1.58-1.86,3.17-3.63,4.73-5.28a76.58,76.58,0,0,1,7.45-7l.69-.54c.52-.4,1-.77,1.51-1.11s.89-.61,1.31-.86l.28-.18.57-.35c2.64-1.55,4.37-2,5.48-1.64a2.07,2.07,0,0,1,1.41,1.35c.05.11.08.22.12.33A6.16,6.16,0,0,1,248,179.49Z" style="fill:#EC0000"></path><path d="M243.49,192.81v0l-.06.12c-.06.11-.11.23-.17.34-.32.64-.64,1.28-1,1.91a3.65,3.65,0,0,1-.18.34c-.32.65-.66,1.29-1,1.93l-.18.34-.19.36.34-.36a3.49,3.49,0,0,0,.32-.35l.12-.13c.46-.52.89-1.07,1.31-1.62a0,0,0,0,1,.06,0,9.45,9.45,0,0,1-1.19,1.7l0,.05-.29.3c-.27.28-.56.54-.86.8s-.41.75-.62,1.12c-.07.12-.13.24-.2.35l-.39.67c-.15.26-.3.51-.44.77a1.4,1.4,0,0,1-.29-.09l-.24-.08c.17-.26.33-.53.49-.8l.27-.44.21-.36c.39-.63.77-1.27,1.16-1.91l.21-.34c.39-.64.78-1.29,1.16-1.94l.21-.34c.37-.63.74-1.27,1.1-1.91.07-.11.13-.23.2-.35l.09-.16A0,0,0,0,1,243.49,192.81Z" style="fill:#263238"></path><path d="M245.93,178c0,1,4.42,7.62,9.15,7.62,2.47,0,1.33-6.61,1.33-6.61l.23-.54,3.2-7.55-8.17-7.63-1.19-1s-.74,2.12-1.64,4.78l-.12.37c-.06.15-.11.29-.16.43-.13.4-.27.8-.41,1.21s-.2.6-.29.93l-.3,1A51.42,51.42,0,0,0,245.93,178Z" style="fill:#eb9481"></path><path d="M248.84,167a16.43,16.43,0,0,0,7.8,11.43l3.2-7.55-8.17-7.63-1.19-1S249.74,164.33,248.84,167Z" style="fill:#263238"></path><path d="M270.48,156c2.63,14.16-5.55,17.34-8.61,17.9-2.77.51-12.28,1.9-16.36-11.91s1.67-19.51,8-21S267.85,141.82,270.48,156Z" style="fill:#eb9481"></path><path d="M265.67,153.43c-.33,0-.65,0-1,0a1.56,1.56,0,0,1-1-.17.51.51,0,0,1-.15-.6,1.27,1.27,0,0,1,1.15-.58,1.89,1.89,0,0,1,1.3.36A.55.55,0,0,1,265.67,153.43Z" style="fill:#263238"></path><path d="M256.34,155.76c.31-.12.59-.28.89-.43a1.58,1.58,0,0,0,.84-.61.51.51,0,0,0-.15-.61,1.27,1.27,0,0,0-1.29,0,1.89,1.89,0,0,0-1,.91A.55.55,0,0,0,256.34,155.76Z" style="fill:#263238"></path><path d="M259.19,158.82s-.06.06-.05.1c.28.94.44,2.06-.33,2.61,0,0,0,.06,0,.05C259.84,161.15,259.6,159.66,259.19,158.82Z" style="fill:#263238"></path><path d="M258.08,158.05c-1.56.29-.87,3.38.57,3.11S259.38,157.81,258.08,158.05Z" style="fill:#263238"></path><path d="M257.51,158.35c-.23.23-.43.6-.75.71s-.72-.14-1-.4c0,0-.05,0,0,.05.12.59.49,1.15,1.14,1.1s.9-.67.91-1.3C257.73,158.4,257.6,158.25,257.51,158.35Z" style="fill:#263238"></path><path d="M264.66,157.37s.09,0,.1.07c.17,1,.54,2,1.47,2.17a0,0,0,0,1,0,.06C265.14,159.74,264.68,158.31,264.66,157.37Z" style="fill:#263238"></path><path d="M265.3,156.18c1.52-.45,2.31,2.62.9,3S264,156.56,265.3,156.18Z" style="fill:#263238"></path><path d="M266,156.22c.28.1.6.33.89.28s.5-.46.64-.83c0,0,0,0,.05,0,.17.58.13,1.24-.4,1.5s-1-.17-1.29-.72C265.84,156.37,265.88,156.18,266,156.22Z" style="fill:#263238"></path><path d="M261.23,166.31c.27.18.56.45.92.42a2.49,2.49,0,0,0,1-.43s.07,0,.05,0a1.32,1.32,0,0,1-1.13.74,1,1,0,0,1-.91-.72C261.12,166.31,261.19,166.28,261.23,166.31Z" style="fill:#263238"></path><path d="M264.41,161.91s.53,1.38.69,2.06c0,.06-.14.13-.36.19,0,0,0,0,0,0a3.28,3.28,0,0,1-3.39-.46.07.07,0,0,1,.08-.12,5,5,0,0,0,3.12.15c0-.2-1-2.33-.89-2.36a6.13,6.13,0,0,1,1.61,0c-1-2.9-2.51-5.62-3.49-8.53,0-.11.11-.17.16-.09a50.09,50.09,0,0,1,4.16,9C266.21,162.14,264.71,162,264.41,161.91Z" style="fill:#263238"></path><path d="M264.2,163.91a3.54,3.54,0,0,1-1.07,1.44,1.59,1.59,0,0,1-.91.32c-.72,0-.91-.6-.94-1.17a3.73,3.73,0,0,1,.08-.89A4.52,4.52,0,0,0,264.2,163.91Z" style="fill:#263238"></path><path d="M263.13,165.35a1.59,1.59,0,0,1-.91.32c-.72,0-.91-.6-.94-1.17A1.66,1.66,0,0,1,263.13,165.35Z" style="fill:#ff9cbd"></path><path d="M246.49,162.4c2.73,0,2.6-6.26,2.6-6.26s11.19-3.45,10.93-12.89a15.94,15.94,0,0,0,9.09,7.57s-1.75-10.16-10.11-11.07c0,0-10.53-2.33-15.12,6.39S244.66,162.41,246.49,162.4Z" style="fill:#263238"></path><path d="M260,142.55a10.31,10.31,0,0,1,0,4.32,10.57,10.57,0,0,1-1.66,4,9.56,9.56,0,0,1-.67.87l-.35.43-.39.39c-.27.25-.53.51-.81.74l-.89.65-.44.31-.48.26-1,.52c-.66.28-1.34.53-2,.77.62-.38,1.27-.68,1.87-1.05l.89-.59.44-.29.41-.34c.26-.23.53-.45.81-.67s.49-.5.73-.74l.37-.38.32-.41a7.36,7.36,0,0,0,.63-.84,12.26,12.26,0,0,0,1.71-3.79,12.1,12.1,0,0,0,.38-2.08A12.58,12.58,0,0,0,260,142.55Z" style="fill:#263238"></path><path d="M247.94,161.65s-3.57-4.17-5.49-2.86,1.06,7.57,3.53,8.23a2.44,2.44,0,0,0,3.12-1.62Z" style="fill:#eb9481"></path><path d="M243.35,160.57a0,0,0,0,0,0,.06,6.13,6.13,0,0,1,3.54,3.53,1.34,1.34,0,0,0-2-.18.05.05,0,0,0,.05.09,1.5,1.5,0,0,1,1.69.36,7.45,7.45,0,0,1,.92,1.25c.09.14.35,0,.28-.13l0,0C247.61,163.38,245.66,160.56,243.35,160.57Z" style="fill:#263238"></path><path d="M245.85,144.11c-.53,1.34-8.13,2.49-11.64-2.55s.72-11.35,6.87-8.56C245,134.76,247,141.26,245.85,144.11Z" style="fill:#263238"></path><path d="M233.89,134.59a8.49,8.49,0,0,1,4.85-2.78,5.09,5.09,0,0,1,4.85,1.6,10.3,10.3,0,0,1,2.33,5,15.82,15.82,0,0,1,.3,2.84,8,8,0,0,1-.37,2.87,7.06,7.06,0,0,0,.9-2.84,13.09,13.09,0,0,0,0-3,10,10,0,0,0-2.36-5.59,5.71,5.71,0,0,0-5.83-1.69A7.49,7.49,0,0,0,233.89,134.59Z" style="fill:#263238"></path></g><g id="freepik--character-1--inject-14"><path d="M359.8,350.85l35-.49s-1.69-21.88-1.4-23.48c.37-2.07,25.17-99.31,25.17-99.31H385.17s-26.24,90.64-27.25,99.37C356.75,337,359.8,350.85,359.8,350.85Z" style="fill:#eb9481"></path><path d="M406.9,273.27s-33.66-8.9-34.29-9.37,12.56-36.21,12.56-36.21h33.36Z" style="fill:#455a64"></path><path d="M407.19,267c-10-3.31-20.16-6.24-30.42-8.7a.1.1,0,0,0-.06.19q15,5,30.42,8.73A.11.11,0,0,0,407.19,267Z" style="fill:#263238"></path><path d="M418.53,227.57s-9.76,38.26-17.2,67.62l-15.08-67.62Z" style="fill:#263238"></path><path d="M338.58,440.12c1.93.59,56.4-.79,58.44-2.15.56-.37.89-16,.92-25a7,7,0,0,0-3.7-6.54c-6.41-2.93-21.54-3.78-28.2.52-1.69,1.1-3.38,7.33-3.38,7.33l.32,6.38s-20.62,9.86-22.7,11.6S336.67,439.53,338.58,440.12Z" style="fill:#c7c7c7"></path><path d="M338.42,440.2c1.93.59,56.71-.79,58.76-2.16.95-.64,1.15-12.3,1.09-24.6l-35.64.8.33,6.42s-20.74,9.91-22.83,11.65S336.49,439.61,338.42,440.2Z" style="fill:#EC0000"></path><path d="M339.15,438c9.18-.46,46.23-1.44,55.34-1.19.07,0,.07.05,0,.06-9.09.65-46.15,1.33-55.33,1.28C339,438.14,339,438,339.15,438Z" style="fill:#263238"></path><path d="M361.61,418.65c3.6-.76,8-.32,10.86,2.18.11.1,0,.25-.15.22a51,51,0,0,0-10.68-1.94A.23.23,0,0,1,361.61,418.65Z" style="fill:#263238"></path><path d="M359,420.29c3.6-.77,8-.32,10.86,2.18.11.1,0,.25-.15.22a50.87,50.87,0,0,0-10.68-1.95A.23.23,0,0,1,359,420.29Z" style="fill:#263238"></path><path d="M356.47,421.93c3.6-.77,8-.33,10.86,2.18.11.09,0,.25-.15.22a50.23,50.23,0,0,0-10.68-1.95A.23.23,0,0,1,356.47,421.93Z" style="fill:#263238"></path><path d="M353.91,423.56c3.59-.76,8-.32,10.85,2.19.11.09,0,.25-.15.21A50.85,50.85,0,0,0,353.93,424,.23.23,0,0,1,353.91,423.56Z" style="fill:#263238"></path><path d="M356.48,415.57c2.6,1.92,5.95,2.65,9,3.68.31.11.55-.19.55-.47a.1.1,0,0,0,.09-.13,19.34,19.34,0,0,0-5.78-8.14c-1.54-1.23-4.2-2-5.57-.05S355,414.45,356.48,415.57Zm-1-2.89c-.73-3.94,3.57-2,4.67-1a20.88,20.88,0,0,1,2,2c1.29,1.47,2.35,3.1,3.48,4.68-1.45-.6-2.94-1.06-4.41-1.61C359.44,416.11,355.89,414.86,355.48,412.68Z" style="fill:#263238"></path><path d="M378,412.84c-.93-2.23-3.71-2-5.47-1.1a19.22,19.22,0,0,0-7.32,6.77.1.1,0,0,0,.05.15.45.45,0,0,0,.45.57c3.15-.39,6.58-.41,9.53-1.75C377,416.69,378.88,415,378,412.84Zm-7.62,4.82c-1.55.23-3.1.38-4.64.67a57,57,0,0,1,4.36-3.86,22.84,22.84,0,0,1,2.34-1.58c1.27-.7,5.9-1.74,4.36,2C376,416.9,372.22,417.39,370.38,417.66Z" style="fill:#263238"></path><path d="M372.89,439.68c12.3-.44,23.39-1,24.29-1.64s1.12-11.14,1.1-22.73Z" style="opacity:0.1"></path><rect x="375.58" y="358.08" width="7.39" height="46.99" transform="translate(-23.69 25.1) rotate(-3.68)" style="fill:#dbdbdb"></rect><path d="M371.84,368.07c-.39.29,2.21,4.66,3.2,5.06s5.57.56,7.36-.25c.86-.39,2.68-5,2.65-5.34S375.25,365.6,371.84,368.07Z" style="fill:#c7c7c7"></path><path d="M387.5,405.39c.39-.29-2.27-4.63-3.27-5s-5.58-.48-7.36.36c-.85.41-2.6,5-2.57,5.38S384.13,407.91,387.5,405.39Z" style="fill:#c7c7c7"></path><path d="M356.92,343.87c-1.94-.41,1.46,16.4,3.79,19.06,2.72,3.1,10.34,5.89,18.1,5.79,6.7-.08,13.47-4,16-6.33s2.69-21.65,1.81-21.25C392.83,342.89,381.39,349,356.92,343.87Z" style="fill:#a6a6a6"></path><path d="M383.44,440.77c1.92.6,58.06-.61,60.11-2,.79-.51-2.14-53.72-2.14-53.72l-35.14.68,1.7,35.61s-20.71,9.81-22.81,11.55S381.51,440.18,383.44,440.77Z" style="fill:#eb9481"></path><path d="M383.44,440.77c1.92.6,58.06-.62,60.11-2,.44-.28-.25-16.45-1-31l-35.21,1.06.59,12.47s-20.71,9.82-22.81,11.57S381.51,440.17,383.44,440.77Z" style="fill:#ebebeb"></path><path d="M383.33,440.78c1.94.58,58.17-.61,60.22-2,.95-.64-.37-12.69-.47-25l-35.63.92.35,6.42s-20.7,10-22.79,11.75S381.4,440.19,383.33,440.78Z" style="fill:#EC0000"></path><path d="M384.06,438.56c9.17-.49,46.22-1.6,55.33-1.39.07,0,.07.05,0,.06-9.08.68-46.14,1.5-55.33,1.48C383.87,438.71,383.86,438.57,384.06,438.56Z" style="fill:#263238"></path><path d="M406.44,419.14c3.6-.78,8-.35,10.87,2.14.11.1,0,.26-.15.22a51,51,0,0,0-10.69-1.9A.23.23,0,0,1,406.44,419.14Z" style="fill:#263238"></path><path d="M403.88,420.79c3.59-.78,8-.35,10.86,2.14.11.1,0,.25-.14.22a51,51,0,0,0-10.69-1.91A.23.23,0,0,1,403.88,420.79Z" style="fill:#263238"></path><path d="M401.32,422.44c3.59-.78,8-.36,10.86,2.14.11.09,0,.25-.15.22a50.8,50.8,0,0,0-10.68-1.91A.23.23,0,0,1,401.32,422.44Z" style="fill:#263238"></path><path d="M398.76,424.08c3.59-.78,8-.35,10.86,2.15.11.09,0,.25-.15.21a50.77,50.77,0,0,0-10.69-1.9A.23.23,0,0,1,398.76,424.08Z" style="fill:#263238"></path><path d="M401.3,416.08c2.61,1.91,6,2.63,9,3.65a.46.46,0,0,0,.56-.47.09.09,0,0,0,.08-.13,19.29,19.29,0,0,0-5.8-8.12c-1.55-1.22-4.22-2-5.58,0S399.77,415,401.3,416.08Zm-1-2.88c-.75-3.95,3.57-2,4.67-1a19.67,19.67,0,0,1,2,2c1.3,1.47,2.36,3.09,3.5,4.67-1.45-.6-2.94-1.06-4.41-1.59C404.27,416.61,400.71,415.37,400.29,413.2Z" style="fill:#263238"></path><path d="M422.81,413.27c-.94-2.23-3.71-2-5.47-1.08A19.24,19.24,0,0,0,410,419a.1.1,0,0,0,0,.15c0,.27.12.61.45.56,3.16-.39,6.58-.43,9.52-1.78C421.78,417.12,423.7,415.38,422.81,413.27Zm-7.61,4.85c-1.54.24-3.09.39-4.63.68a55.13,55.13,0,0,1,4.35-3.87,19.09,19.09,0,0,1,2.33-1.58c1.27-.71,5.89-1.77,4.37,1.94C420.78,417.34,417.05,417.84,415.2,418.12Z" style="fill:#263238"></path><path d="M386.25,227.56s1,15.95,4.78,28.54c.31,1,.64,2.07,1,3A59.33,59.33,0,0,1,401.7,264s2.4,61,2.36,64.81C403.9,343,407.53,412,407.53,412l35.24-.34s-3.65-78.08-3.67-83.27c0-8.34-7.39-100.82-7.39-100.82Z" style="fill:#eb9481"></path><path d="M386.25,227.56s1,15.95,4.78,28.55c.31,1,.63,2.06,1,3A59.91,59.91,0,0,1,401.7,264s.14,3.57.35,9l35.27-1c-.25-3.28-.86-9.69-.86-9.69,5.27-17.38-4.75-34.73-4.75-34.73Z" style="fill:#455a64"></path><path d="M405.92,265.72c-1.54-1.06-3.19-2-4.81-2.87s-3.34-1.84-5.07-2.64a83.54,83.54,0,0,0-10.48-3.8c-.09,0-.15.11-.07.15,3.42,1.47,6.73,3.15,10.13,4.66,1.71.76,3.44,1.49,5.15,2.24s3.38,1.61,5.11,2.33A0,0,0,0,0,405.92,265.72Z" style="fill:#263238"></path><path d="M397.21,247.61c0-1.68-.16-3.35-.25-5-.19-4-.35-7.93-.71-11.87a.13.13,0,0,0-.25,0c-.05,3.06.07,6.12.13,9.18,0,1.53.08,3.06.12,4.59a42.86,42.86,0,0,1,0,4.39c-.08,1.1-.33,3.24-1.76,3.37s-2.1-1.33-2.44-2.41a41.3,41.3,0,0,1-1.44-8.49c-.17-1.68-.33-3.35-.43-5a44.66,44.66,0,0,1-.17-5.17c0-.1-.16-.1-.17,0-.09,1.72-.33,3.44-.39,5.18s-.06,3.45,0,5.17.25,3.31.49,5a18.25,18.25,0,0,0,1.07,4.37,3.85,3.85,0,0,0,2.65,2.48,2.81,2.81,0,0,0,.49.05c0,.35.06.71.09,1.06,0,.56.1,1.11.18,1.66a11.12,11.12,0,0,0,.34,1.6,6,6,0,0,0,.56,1.53c.05.08.15,0,.16,0a7.67,7.67,0,0,0-.14-1.58c-.07-.53-.15-1.08-.26-1.61s-.2-1.05-.31-1.57c-.07-.35-.12-.71-.19-1.07a2.55,2.55,0,0,0,1.92-1.51A9.43,9.43,0,0,0,397.21,247.61Z" style="fill:#263238"></path><path d="M401.77,263.63a.07.07,0,0,0-.13,0,90.31,90.31,0,0,0,.26,9.17.09.09,0,0,0,.17,0A77.11,77.11,0,0,0,401.77,263.63Z" style="fill:#263238"></path><path d="M435.27,267.74c-10.54.06-21.1.53-31.61,1.48a.1.1,0,0,0,0,.19c10.55,0,21.1-.53,31.61-1.44A.12.12,0,0,0,435.27,267.74Z" style="fill:#263238"></path><path d="M432.84,248a39,39,0,0,1-7.17.19,12.54,12.54,0,0,1-6.24-2.45c-4-3.07-5.69-8.09-6.76-12.8a.09.09,0,0,0-.17,0c.45,4.08,1.33,8.3,4,11.59a12.85,12.85,0,0,0,4.21,3.47,12.36,12.36,0,0,0,5.56,1.14,26.85,26.85,0,0,0,6.66-.9A.14.14,0,0,0,432.84,248Z" style="fill:#263238"></path><path d="M381.83,188.75a.43.43,0,0,0,.42.39l1.7-.26c.63-4.54,1.56-8.23,1.41-6.84a23.3,23.3,0,0,0,.26,6.57L389,188c-.22-7.68.31-13.53.56-11.82,1,6.91,1.82,9,2.74,11.26,8.06-1.4,18.61-3.36,26.2-4.95,0-4.28-.12-8.88.08-8.6,1.51,2.08,2.48,5.36,3,7.94,2.41-.53,4.33-1,5.49-1.34,0,0-.15-3.57-.3-4.71a25.57,25.57,0,0,0-2.62-8.42,44.52,44.52,0,0,0-5.15-7.19s0,0-.05-.05,0,0,0,0a25.69,25.69,0,0,1-3.12-4.87l0,0a25.11,25.11,0,0,1-1.47-3.95c-1.39-5-4.94-8.73-9.63-9.07-10.07-6.56-17.69-1.13-18.87,5.9-.12.69-.2,1.46-.27,2.3v0c-.25,3.11-.23,7.06-.34,10.15,0,0,0,0,0,0s0,0,0,0h0a31.28,31.28,0,0,1-.29,3.6C383.91,170,379.72,174.06,381.83,188.75Z" style="fill:#263238"></path><path d="M406.91,143.16a9.51,9.51,0,0,1,6.71,6.52,25.92,25.92,0,0,0,2.46,6,22.56,22.56,0,0,0,4.47,4.77,16.82,16.82,0,0,1,5.66,8.19,30.41,30.41,0,0,1,1.37,11.64,0,0,0,0,1,0,0,32.06,32.06,0,0,0-2.08-12c-1.46-3.85-4.08-5.89-6.87-8.44a17.47,17.47,0,0,1-4.85-7.44,21.17,21.17,0,0,0-2-5.23,10.51,10.51,0,0,0-5-3.6A.22.22,0,0,1,406.91,143.16Z" style="fill:#263238"></path><path d="M381.24,171c1.45-3.32,3.08-6.23,3.54-10,.42-3.48.34-7,.78-10.52,0,0,.09,0,.08,0-.52,6.12.34,12-2.11,17.58a39.58,39.58,0,0,0-3.29,9.31,30.71,30.71,0,0,0,.21,10.81c0,.12-.13.15-.17,0A25.19,25.19,0,0,1,381.24,171Z" style="fill:#263238"></path><path d="M401.51,188.27c-3.9,9.12-20.3,37.77-26.34,39.37-6.27,1.66-30.05,2.4-34.94-2.15-2.39-2.23-1.49-23.85,1.91-23s24.12,3.3,26.66,2.62,21-23.34,28.22-28.6C409.4,167.39,403.61,183.35,401.51,188.27Z" style="fill:#eb9481"></path><path d="M347.4,202.51l-1.88,26.88s24.14,2.07,30.86-.78,22.9-32.76,27.29-44.35-.91-13.88-10.28-5.88-23.89,25.17-25.47,25.42S347.4,202.51,347.4,202.51Z" style="fill:#EC0000"></path><path d="M353.34,216.35c.16-2.13.73-10.64.71-12.77,0,0-.06-.05-.07,0-.37,2-1.18,10.42-1.34,12.56a116,116,0,0,0-.58,12.78c0,.07.12.1.14,0C352.86,224.77,353,220.55,353.34,216.35Z" style="fill:#263238"></path><path d="M403.67,184.25c-4.39,11.6-20.57,41.5-27.29,44.35-5.09,2.16-20.16,1.5-27.18,1.05l52.88-56C405.4,173.51,406.36,177.12,403.67,184.25Z" style="opacity:0.1"></path><path d="M385.57,214.08,382,235.88s42.76,1.9,54.6,2.28c0,0-7.61-44.45-18.83-59.47-5.62-7.52-13.09-7.77-18.32-3.46-1.32,1.09-14.94,18.32-17.19,25.38C380.31,206.84,385.57,214.08,385.57,214.08Z" style="fill:#EC0000"></path><path d="M402,212.3a46.14,46.14,0,0,0-6.83-.82c-1.14,0-2.28,0-3.42,0-.57,0-1.14,0-1.7,0a7.57,7.57,0,0,1-1.78-.17c-.05,0-.07.06,0,.08a13.07,13.07,0,0,0,1.63.44,12.5,12.5,0,0,0,1.63.15c1.15,0,2.31,0,3.47.08,2.34.07,4.67.14,7,.39C402.06,212.5,402.08,212.32,402,212.3Z" style="fill:#263238"></path><path d="M406.84,215.82a49.29,49.29,0,0,0-5.37-1.84c-.92-.26-1.84-.46-2.77-.63-.45-.09-.89-.16-1.34-.23s-1-.09-1.49-.17c-.05,0-.07.06,0,.07.46.1.91.27,1.36.39l1.37.36c.92.24,1.83.49,2.75.72,1.83.47,3.65.95,5.47,1.48C406.9,216,406.93,215.86,406.84,215.82Z" style="fill:#263238"></path><path d="M413.81,174.72l-12.9-.53.49-.29,11.91.49C413.48,174.5,413.65,174.6,413.81,174.72Zm2.15,1.85-17.1-.7c-.08.09-.17.19-.26.31l17.68.72A2.5,2.5,0,0,0,416,176.57Zm1.85,2.14-20.62-.85-.25.31L418,179C418,178.92,417.88,178.82,417.81,178.71Zm1.43,2.13-23.65-1a3.24,3.24,0,0,1-.24.31l24.1,1A3,3,0,0,0,419.24,180.84Zm1.25,2.11-26.44-1.09c-.07.11-.14.2-.22.31l26.82,1.1C420.6,183.16,420.54,183.06,420.49,183Zm1.08,2.12-29-1.2-.23.31,29.41,1.21A1.91,1.91,0,0,0,421.57,185.07Zm1,2.1-31.48-1.3-.21.31,31.84,1.31Zm.93,2.1-33.84-1.39a3.46,3.46,0,0,1-.22.31l34.19,1.4C423.59,189.48,423.54,189.38,423.5,189.27Zm.85,2.1-36.06-1.49a2.82,2.82,0,0,0-.21.31l36.4,1.5C424.43,191.58,424.39,191.48,424.35,191.37Zm.81,2.11-38.22-1.58-.19.31,38.53,1.59A2.08,2.08,0,0,1,425.16,193.48Zm.75,2.09-40.24-1.66c-.06.1-.13.21-.18.31L426,195.89C426,195.78,426,195.68,425.91,195.57Zm.74,2.1-42.17-1.74a3.07,3.07,0,0,0-.16.31L426.75,198A2,2,0,0,1,426.65,197.67Zm.68,2.09L383.41,198a3,3,0,0,0-.16.31l44.18,1.82C427.4,200,427.36,199.86,427.33,199.76Zm.65,2.09L382.5,200c0,.11-.08.21-.11.31l45.7,1.88A3,3,0,0,0,428,201.85Zm.64,2.1L382,202c0,.11,0,.21,0,.32l46.82,1.93Zm.63,2.09-47.4-1.95c0,.1,0,.21,0,.32l47.47,2A1.92,1.92,0,0,1,429.25,206Zm.58,2.09-47.74-2c0,.1.05.21.08.32l47.75,2C429.89,208.34,429.87,208.23,429.83,208.13Zm.57,2.08-47.75-2c0,.1.07.2.11.31l47.73,2C430.47,210.43,430.43,210.32,430.4,210.21Zm.55,2.09-47.48-2,.15.32,47.42,2C431,212.53,431,212.42,431,212.3Zm.55,2.09-46.95-1.93a3.3,3.3,0,0,0,.18.32l46.84,1.94C431.55,214.61,431.53,214.5,431.5,214.39Zm.52,2.09-46.54-1.92-.05.32,46.67,1.93C432.07,216.7,432,216.59,432,216.48Zm.5,2.09-47.37-2,0,.33,47.49,1.95C432.57,218.79,432.55,218.68,432.52,218.57Zm.49,2.08-48.19-2-.05.32,48.32,2Zm.48,2.09-49-2-.06.32,49.14,2C433.54,223,433.51,222.85,433.49,222.74Zm.46,2.08-49.8-2,0,.32L434,225.15C434,225,434,224.93,434,224.82Zm.45,2.09-50.59-2.08,0,.31,50.7,2.09C434.45,227.12,434.43,227,434.4,226.91Zm.44,2.08-51.35-2.12-.06.32,51.48,2.13C434.89,229.22,434.87,229.1,434.84,229Zm.43,2.09-52.12-2.15,0,.31,52.23,2.15Zm.41,2.08L382.81,231l-.05.33,53,2.18Zm.41,2.08L382.49,233l-.05.32,53.7,2.21C436.12,235.46,436.11,235.35,436.09,235.24Zm.38,2.08-54.32-2.23,0,.32,54.42,2.24C436.5,237.55,436.49,237.44,436.47,237.32Z" style="opacity:0.1"></path><path d="M418.33,178.93c16.76,16.29,36.28,44.33,29.12,51-6.54,6.13-32.08,2.32-48.32-2.86-3.09-1,7.44-28.44,10.62-27a88.11,88.11,0,0,0,10.31,3.88c.89.18-4.25-5.34-10.44-19C403.33,171.08,408.75,169.61,418.33,178.93Z" style="fill:#eb9481"></path><path d="M371.12,200.52c.19,3.1,7.79,2,7.79,2a5.71,5.71,0,0,0-2.12,3.27c-.44,2.32,3,4,3,4a7,7,0,0,0-1.7,3.8c-.19,2.27,3.05,4.47,3.05,4.47a6.24,6.24,0,0,0,.61,4.29c2,3.41,8.16,3.1,12,3.65a80.94,80.94,0,0,1,12.64,3.15l5.24-28.3s-17-8.67-21.55-8.16C386.23,193.13,370.85,195.78,371.12,200.52Z" style="fill:#eb9481"></path><path d="M379,202.43a51.83,51.83,0,0,1,12.46-2.34c.09,0,.1.14,0,.15-4.15.36-8.3,1.85-12.42,2.38A.1.1,0,0,1,379,202.43Z" style="fill:#263238"></path><path d="M379.9,209.48a11,11,0,0,1,2.86-.34c1,0,2-.09,3.06-.1,2,0,4.09,0,6.13,0,.09,0,.11.14,0,.15-2,0-4.08.11-6.11.23-1,.06-2,.13-3.05.21a13.32,13.32,0,0,1-2.89.09A.15.15,0,0,1,379.9,209.48Z" style="fill:#263238"></path><path d="M381.24,218.07a7.79,7.79,0,0,1,2.6-.17h2.79c1.86,0,3.73,0,5.59-.11a.08.08,0,0,1,0,.15c-1.89.09-3.78.2-5.67.28l-2.79.09a7.16,7.16,0,0,1-2.53-.14A0,0,0,0,1,381.24,218.07Z" style="fill:#263238"></path><path d="M412.34,200.5l-4.13,30.35s38.13,7.4,41.42-2.34-21-43.57-34.37-52.82-7.57,6.3-7.11,7.54c2.08,5.51,11,19.68,11,19.68Z" style="fill:#EC0000"></path><path d="M413,200.49c4.4,1.24,16.05,6.15,18.67,8.3.08.07,0,.19-.07.14-2.55-1.57-16.94-7.51-19.17-8.2a3.48,3.48,0,0,1-.13.34c-.07.11-.13.05-.13,0a5.48,5.48,0,0,1,.11-.74Z" style="fill:#263238"></path><path d="M417.26,217.05c.28-2.12,1.31-10.6,1.41-12.72,0,0-.06-.05-.07,0-.48,2-1.75,10.34-2,12.46a118.52,118.52,0,0,0-1.28,12.73c0,.08.12.11.14,0C416.32,225.42,416.73,221.22,417.26,217.05Z" style="fill:#263238"></path><path d="M419.47,203.07c-1.34-2.47-2.93-4.81-4.37-7.23s-3-4.78-4.31-7.23c0,0-.07,0-.06,0,.85,1.68,1.68,3.34,2.57,5-.25-.25-.49-.52-.73-.78-.43-.49-.83-1-1.22-1.52a0,0,0,0,0-.05,0,8,8,0,0,0,1.15,1.63,11.69,11.69,0,0,0,1.07,1c.36.67.74,1.33,1.13,2a53.58,53.58,0,0,0,4.39,7.08C419.09,203.18,419.51,203.15,419.47,203.07Z" style="fill:#263238"></path><path d="M439.63,233.23c-6.6.65-27.08-1.77-31.27-2.35,0-.44,0-.6,0-1.22,0-.08-.12-.11-.13,0-.08.6-.4,1.79-.23,1.85,2,.65,22.57,3,31.62,1.93A.09.09,0,0,0,439.63,233.23Z" style="fill:#263238"></path><polygon points="385.25 231.88 354.07 236.08 342.24 192.74 373.42 188.55 385.25 231.88" style="fill:#263238"></polygon><polygon points="383.72 232.09 352.54 236.29 340.71 192.95 371.89 188.75 383.72 232.09" style="fill:#37474f"></polygon><path d="M357.86,211.14a3.41,3.41,0,0,0,3.71,2.59,2.77,2.77,0,0,0,2.36-3.41,3.41,3.41,0,0,0-3.71-2.58A2.75,2.75,0,0,0,357.86,211.14Z" style="fill:#fff"></path><path d="M341,201.88c-1.3,3.65-5,8.4-5.07,11.27a3.31,3.31,0,0,0,2.18,3.29s-2.7,1.7-2.31,4.32c.2,1.34,2.52,2.21,2.52,2.21a3.93,3.93,0,0,0-1.61,3.77c.38,1.84,2.66,2.43,2.66,2.43s-1.36,2.34-.37,4.09c2,3.54,18.06,1.91,19.94-4.25.87-2.87-3-2.26-3-2.26s5.4-2.24,5.14-5.55-5.26-2.22-5.26-2.22,5.2-2.21,4.6-5.62-5.47-1.59-5.47-1.59,3.33-2.78,2.26-5.29c-1.75-4.14-8,1.92-11.57,1.44l-2.54-5.61Z" style="fill:#eb9481"></path><path d="M338.32,207.27c.93-3.57-3.75-7.37-3.36-10.9.54-4.78,6.27-.73,8.13,5.94l.53,5.43Z" style="fill:#eb9481"></path><path d="M339.73,229.32c-.05,0-.06.08,0,.08a28,28,0,0,0,16.43-2.66c.16-.09.09-.38-.1-.32A57.38,57.38,0,0,1,339.73,229.32Z" style="fill:#263238"></path><path d="M338.27,223c-.07,0-.07.1,0,.11a26.23,26.23,0,0,0,17.74-4c.18-.13.22-.42,0-.29C352.34,221,343.48,222.93,338.27,223Z" style="fill:#263238"></path><path d="M355.24,211.38c-5.15,3.29-10.85,4.6-16.89,5.1-.07,0-.06.12,0,.13,3,.56,6.84-.16,9.76-1a16.08,16.08,0,0,0,7.24-4.08C355.44,211.49,355.35,211.31,355.24,211.38Z" style="fill:#263238"></path><path d="M408.46,174.74c0,.92-4.14,7.12-8.55,7.12-2.31,0-1.24-6.17-1.24-6.17l-.22-.5-3-7.06,7.63-7.13,1.11-1s.7,2,1.53,4.46l.12.36c0,.13.1.27.14.4l.39,1.12c.09.29.18.57.27.87s.19.61.28.91A49.46,49.46,0,0,1,408.46,174.74Z" style="fill:#eb9481"></path><path d="M405.73,164.5a15.36,15.36,0,0,1-7.28,10.69l-3-7.06,7.63-7.13,1.11-1S404.9,162,405.73,164.5Z" style="fill:#263238"></path><path d="M383.32,158.67c1.41,13.38,9.58,14.05,12.46,13.74,2.62-.28,11.5-1.56,11.49-15s-6.68-17-12.7-16.71S381.92,145.29,383.32,158.67Z" style="fill:#eb9481"></path><path d="M385.6,156a9,9,0,0,0,.86-.34,1.49,1.49,0,0,0,.81-.52.46.46,0,0,0-.1-.57,1.17,1.17,0,0,0-1.2-.08,1.8,1.8,0,0,0-1,.79A.51.51,0,0,0,385.6,156Z" style="fill:#263238"></path><path d="M394.14,154.42c-.32,0-.61,0-.93,0a1.53,1.53,0,0,1-.94-.22.49.49,0,0,1-.1-.58,1.22,1.22,0,0,1,1.11-.47,1.81,1.81,0,0,1,1.18.42A.51.51,0,0,1,394.14,154.42Z" style="fill:#263238"></path><path d="M392.82,158.1s.08,0,.08.07c.11.91.38,1.93,1.25,2.11,0,0,0,.05,0,.05C393.13,160.34,392.77,159,392.82,158.1Z" style="fill:#263238"></path><path d="M393.49,157c1.44-.33,2,2.58.65,2.88S392.28,157.31,393.49,157Z" style="fill:#263238"></path><path d="M394.09,157.08c.28.11.59.36.9.33s.57-.39.75-.72c0,0,0,0,.05,0,.12.56,0,1.17-.57,1.36s-1-.24-1.26-.77C393.91,157.2,394,157,394.09,157.08Z" style="fill:#263238"></path><path d="M387.91,159s-.06.05-.05.09c.21.89.29,1.95-.46,2.41,0,0,0,.06,0,.05C388.38,161.18,388.25,159.78,387.91,159Z" style="fill:#263238"></path><path d="M386.93,158.19c-1.47.17-1,3.09.35,2.93S388.16,158,386.93,158.19Z" style="fill:#263238"></path><path d="M386.35,158.47c-.21.19-.39.51-.67.57s-.6-.21-.85-.48c0,0-.05,0,0,0,.07.56.35,1.12.9,1.14s.79-.51.84-1.09C386.53,158.54,386.43,158.4,386.35,158.47Z" style="fill:#263238"></path><path d="M394.16,165.37c-.17.26-.31.6-.63.7a2.3,2.3,0,0,1-1,0,0,0,0,0,0,0,.06,1.25,1.25,0,0,0,1.25.21,1,1,0,0,0,.51-1A0,0,0,0,0,394.16,165.37Z" style="fill:#263238"></path><path d="M389.81,162.77s.05,1.38.16,2c0,.06.17.06.39,0,0,0,0,0,0,0a3.07,3.07,0,0,0,2.74-1.64.07.07,0,0,0-.11-.08,4.58,4.58,0,0,1-2.62,1.28c-.08-.17,0-2.37-.11-2.36a5.78,5.78,0,0,0-1.39.59c-.19-2.88.08-5.76-.15-8.61,0-.1-.16-.11-.17,0a46.51,46.51,0,0,0-.23,9.28C388.35,163.64,389.57,162.93,389.81,162.77Z" style="fill:#263238"></path><path d="M390.72,164.41a3.37,3.37,0,0,0,1.45.84,1.59,1.59,0,0,0,.91-.06c.62-.26.56-.85.37-1.35a3.72,3.72,0,0,0-.39-.74A4.32,4.32,0,0,1,390.72,164.41Z" style="fill:#263238"></path><path d="M392.17,165.25a1.59,1.59,0,0,0,.91-.06c.62-.26.56-.85.37-1.35A1.55,1.55,0,0,0,392.17,165.25Z" style="fill:#ff9cbd"></path><path d="M406.51,158.05c-2.45.71-4-4.92-4-4.92s-10.93-.12-13.2-8.64a14.87,14.87,0,0,1-6.14,9.19s-1.13-9.56,6.12-12.6c0,0,8.81-4.88,15.24,1.71S408.15,157.57,406.51,158.05Z" style="fill:#263238"></path><path d="M389.17,143.85a9.35,9.35,0,0,0,1.1,3.88,10,10,0,0,0,2.56,3.19,9.71,9.71,0,0,0,.83.6l.43.29.45.24c.31.16.61.32.92.46l1,.34.48.16.5.1,1,.22c.67.07,1.35.12,2,.15-.66-.17-1.32-.27-2-.45l-.95-.29-.47-.14-.45-.19c-.3-.14-.6-.27-.91-.39s-.57-.31-.85-.47l-.43-.24L394,151a9.28,9.28,0,0,1-.78-.58,11.34,11.34,0,0,1-2.54-2.94,11.62,11.62,0,0,1-.89-1.76A10.55,10.55,0,0,1,389.17,143.85Z" style="fill:#263238"></path><path d="M405,157.76s2.09-4.68,4.16-4,1.06,7.06-1,8.31a2.28,2.28,0,0,1-3.23-.62Z" style="fill:#eb9481"></path><path d="M408.83,155.57s.05,0,0,.06a5.73,5.73,0,0,0-2.24,4.09,1.25,1.25,0,0,1,1.78-.69c.05,0,0,.09,0,.09a1.38,1.38,0,0,0-1.41.77,6.15,6.15,0,0,0-.49,1.36c-.05.16-.31.13-.29,0v0C405.77,159.22,406.76,156.18,408.83,155.57Z" style="fill:#263238"></path><path d="M402.22,141.49c.84,1.07,7.94.08,9.75-5.37s-3.66-10-8.43-5.83C400.53,132.9,400.46,139.24,402.22,141.49Z" style="fill:#263238"></path><path d="M410.41,129.8a7.9,7.9,0,0,0-5.09-1.2,4.76,4.76,0,0,0-3.92,2.72,9.69,9.69,0,0,0-.76,5.08,15.81,15.81,0,0,0,.49,2.63,7.44,7.44,0,0,0,1.09,2.46,6.33,6.33,0,0,1-1.55-2.29,11.93,11.93,0,0,1-.81-2.69,9.39,9.39,0,0,1,.64-5.64,5.45,5.45,0,0,1,2-2.22,5.57,5.57,0,0,1,2.8-.84A7,7,0,0,1,410.41,129.8Z" style="fill:#263238"></path></g></svg>